<?xml version='1.0' encoding='us-ascii'?>
<svg width="823.32mm" height="480.40mm" viewBox="0.0 0.0 823.32 480.40" xmlns="http://www.w3.org/2000/svg" xmlns:dc="http://purl.org/dc/elements/1.1/" xmlns:cc="http://creativecommons.org/ns#" xmlns:rdf="http://www.w3.org/1999/02/22-rdf-syntax-ns#" xmlns:svg="http://www.w3.org/2000/svg" xmlns:xlink="http://www.w3.org/1999/xlink" xmlns:inkscape="http://www.inkscape.org/namespaces/inkscape">
<!--
Console2 - Console with slanted panel and service hatches



This box is designed as a housing for electronic projects. It has hatches that can be re-opened with simple tools. It intentionally cannot be opened with bare hands - if build with thin enough material.

#### Caution
There is a chance that the latches of the back wall or the back wall itself interfere with the front panel or it's mounting frame/lips. The generator does not check for this. So depending on the variant choosen you might need to make the box deeper (increase y parameter) or the panel angle steeper (increase angle parameter) until there is enough room.

It's also possible that the frame of the panel interferes with the floor if the hi parameter is too small.

#### Assembly instructions
The main body is easy to assemble by starting with the floor and then adding the four walls and (if present) the top piece.

If the back wall is removable you need to add the lips and latches. The U-shaped clamps holding the latches in place need to be clued in place without also gluing the latches themselves. Make sure the springs on the latches point inwards and the angled ends point to the side walls as shown here:

![Back wall details](static/samples/Console2-backwall-detail.jpg)

If the panel is removable you need to add the springs with the tabs to the side lips. This photo shows the variant which has the panel glued to the frame:

![Back wall details](static/samples/Console2-panel-detail.jpg)

If space is tight you may consider not glueing the cross pieces in place and remove them after the glue-up. This may prevent the latches of the back wall and the panel from interfereing with each other.

The variant using finger joints only has the two side lips without the cross bars.

#### Re-Opening

The latches at the back wall lock in place when closed. To open them they need to be pressed in and can then be moved aside.

To remove the panel you have to press in the four tabs at the side. It is easiest to push them in and then pull the panel up a little bit so the tabs stay in.



Created with Boxes.py (https://festi.info/boxes.py)
Creation date: 2022-08-13 16:24:48
Command line (remove spaces between dashes): boxes Console2 - -FingerJoint_angle=90.0 - -FingerJoint_style=rectangular - -FingerJoint_surroundingspaces=0.5 - -FingerJoint_edge_width=1.0 - -FingerJoint_extra_length=0.0 - -FingerJoint_finger=2.0 - -FingerJoint_play=0.0 - -FingerJoint_space=2.0 - -FingerJoint_width=1.0 - -Stackable_angle=60 - -Stackable_height=2.0 - -Stackable_holedistance=1.0 - -Stackable_width=4.0 - -x=440 - -y=100 - -h=100 - -bottom_edge=s - -outside=0 - -front_height=20 - -angle=45 - -removable_backwall=0 - -removable_backwall=1 - -removable_panel=0 - -removable_panel=1 - -glued_panel=0 - -glued_panel=1 - -thickness=4.0 - -format=svg - -tabs=0.0 - -debug=0 - -labels=0 - -labels=1 - -reference=100 - -inner_corners=loop - -burn=0.1
Url: http://festi.info/Console2?FingerJoint_angle=90.0&FingerJoint_style=rectangular&FingerJoint_surroundingspaces=0.5&FingerJoint_edge_width=1.0&FingerJoint_extra_length=0.0&FingerJoint_finger=2.0&FingerJoint_play=0.0&FingerJoint_space=2.0&FingerJoint_width=1.0&Stackable_angle=60&Stackable_height=2.0&Stackable_holedistance=1.0&Stackable_width=4.0&x=440&y=100&h=100&bottom_edge=s&outside=0&front_height=20&angle=45&removable_backwall=0&removable_backwall=1&removable_panel=0&removable_panel=1&glued_panel=0&glued_panel=1&thickness=4.0&format=svg&tabs=0.0&debug=0&labels=0&labels=1&reference=100&inner_corners=loop&burn=0.1&render=1
SettingsUrl: http://festi.info/Console2?FingerJoint_angle=90.0&FingerJoint_style=rectangular&FingerJoint_surroundingspaces=0.5&FingerJoint_edge_width=1.0&FingerJoint_extra_length=0.0&FingerJoint_finger=2.0&FingerJoint_play=0.0&FingerJoint_space=2.0&FingerJoint_width=1.0&Stackable_angle=60&Stackable_height=2.0&Stackable_holedistance=1.0&Stackable_width=4.0&x=440&y=100&h=100&bottom_edge=s&outside=0&front_height=20&angle=45&removable_backwall=0&removable_backwall=1&removable_panel=0&removable_panel=1&glued_panel=0&glued_panel=1&thickness=4.0&format=svg&tabs=0.0&debug=0&labels=0&labels=1&reference=100&inner_corners=loop&burn=0.1
-->
<title>Console2</title>
<metadata>
<rdf:RDF><cc:Work>
<dc:title>Box - Console2</dc:title>
<dc:date>2022-08-13 16:24:48</dc:date>
<dc:source>http://festi.info/Console2?FingerJoint_angle=90.0&amp;FingerJoint_style=rectangular&amp;FingerJoint_surroundingspaces=0.5&amp;FingerJoint_edge_width=1.0&amp;FingerJoint_extra_length=0.0&amp;FingerJoint_finger=2.0&amp;FingerJoint_play=0.0&amp;FingerJoint_space=2.0&amp;FingerJoint_width=1.0&amp;Stackable_angle=60&amp;Stackable_height=2.0&amp;Stackable_holedistance=1.0&amp;Stackable_width=4.0&amp;x=440&amp;y=100&amp;h=100&amp;bottom_edge=s&amp;outside=0&amp;front_height=20&amp;angle=45&amp;removable_backwall=0&amp;removable_backwall=1&amp;removable_panel=0&amp;removable_panel=1&amp;glued_panel=0&amp;glued_panel=1&amp;thickness=4.0&amp;format=svg&amp;tabs=0.0&amp;debug=0&amp;labels=0&amp;labels=1&amp;reference=100&amp;inner_corners=loop&amp;burn=0.1&amp;render=1</dc:source>
<dc:description>Console with slanted panel and service hatches


This box is designed as a housing for electronic projects. It has hatches that can be re-opened with simple tools. It intentionally cannot be opened with bare hands - if build with thin enough material.

#### Caution
There is a chance that the latches of the back wall or the back wall itself interfere with the front panel or it's mounting frame/lips. The generator does not check for this. So depending on the variant choosen you might need to make the box deeper (increase y parameter) or the panel angle steeper (increase angle parameter) until there is enough room.

It's also possible that the frame of the panel interferes with the floor if the hi parameter is too small.

#### Assembly instructions
The main body is easy to assemble by starting with the floor and then adding the four walls and (if present) the top piece.

If the back wall is removable you need to add the lips and latches. The U-shaped clamps holding the latches in place need to be clued in place without also gluing the latches themselves. Make sure the springs on the latches point inwards and the angled ends point to the side walls as shown here:

![Back wall details](static/samples/Console2-backwall-detail.jpg)

If the panel is removable you need to add the springs with the tabs to the side lips. This photo shows the variant which has the panel glued to the frame:

![Back wall details](static/samples/Console2-panel-detail.jpg)

If space is tight you may consider not glueing the cross pieces in place and remove them after the glue-up. This may prevent the latches of the back wall and the panel from interfereing with each other.

The variant using finger joints only has the two side lips without the cross bars.

#### Re-Opening

The latches at the back wall lock in place when closed. To open them they need to be pressed in and can then be moved aside.

To remove the panel you have to press in the four tabs at the side. It is easiest to push them in and then pull the panel up a little bit so the tabs stay in.


Created with Boxes.py (https://festi.info/boxes.py)
Command line: boxes Console2 --FingerJoint_angle=90.0 --FingerJoint_style=rectangular --FingerJoint_surroundingspaces=0.5 --FingerJoint_edge_width=1.0 --FingerJoint_extra_length=0.0 --FingerJoint_finger=2.0 --FingerJoint_play=0.0 --FingerJoint_space=2.0 --FingerJoint_width=1.0 --Stackable_angle=60 --Stackable_height=2.0 --Stackable_holedistance=1.0 --Stackable_width=4.0 --x=440 --y=100 --h=100 --bottom_edge=s --outside=0 --front_height=20 --angle=45 --removable_backwall=0 --removable_backwall=1 --removable_panel=0 --removable_panel=1 --glued_panel=0 --glued_panel=1 --thickness=4.0 --format=svg --tabs=0.0 --debug=0 --labels=0 --labels=1 --reference=100 --inner_corners=loop --burn=0.1
Url: http://festi.info/Console2?FingerJoint_angle=90.0&amp;FingerJoint_style=rectangular&amp;FingerJoint_surroundingspaces=0.5&amp;FingerJoint_edge_width=1.0&amp;FingerJoint_extra_length=0.0&amp;FingerJoint_finger=2.0&amp;FingerJoint_play=0.0&amp;FingerJoint_space=2.0&amp;FingerJoint_width=1.0&amp;Stackable_angle=60&amp;Stackable_height=2.0&amp;Stackable_holedistance=1.0&amp;Stackable_width=4.0&amp;x=440&amp;y=100&amp;h=100&amp;bottom_edge=s&amp;outside=0&amp;front_height=20&amp;angle=45&amp;removable_backwall=0&amp;removable_backwall=1&amp;removable_panel=0&amp;removable_panel=1&amp;glued_panel=0&amp;glued_panel=1&amp;thickness=4.0&amp;format=svg&amp;tabs=0.0&amp;debug=0&amp;labels=0&amp;labels=1&amp;reference=100&amp;inner_corners=loop&amp;burn=0.1&amp;render=1
SettingsUrl: http://festi.info/Console2?FingerJoint_angle=90.0&amp;FingerJoint_style=rectangular&amp;FingerJoint_surroundingspaces=0.5&amp;FingerJoint_edge_width=1.0&amp;FingerJoint_extra_length=0.0&amp;FingerJoint_finger=2.0&amp;FingerJoint_play=0.0&amp;FingerJoint_space=2.0&amp;FingerJoint_width=1.0&amp;Stackable_angle=60&amp;Stackable_height=2.0&amp;Stackable_holedistance=1.0&amp;Stackable_width=4.0&amp;x=440&amp;y=100&amp;h=100&amp;bottom_edge=s&amp;outside=0&amp;front_height=20&amp;angle=45&amp;removable_backwall=0&amp;removable_backwall=1&amp;removable_panel=0&amp;removable_panel=1&amp;glued_panel=0&amp;glued_panel=1&amp;thickness=4.0&amp;format=svg&amp;tabs=0.0&amp;debug=0&amp;labels=0&amp;labels=1&amp;reference=100&amp;inner_corners=loop&amp;burn=0.1
</dc:description>
</cc:Work></rdf:RDF></metadata>
<g id="p-0" style="fill:none;stroke-linecap:round;stroke-linejoin:round;">
  <path d="M 10.400 470.400 H 110.400 V 460.400 H 10.400 V 470.400 Z" stroke="rgb(0,0,0)" stroke-width="0.20" />
  <text transform="matrix( 1.000 0.000 0.000 1.000 60.400 461.400 )" style="font-family: sans-serif ; font-weight: normal; font-style: normal; fill: rgb(255,0,0)" font-size="8px" text-anchor="middle" dominant-baseline="hanging">100mm, burn:0.10mm</text>
</g>
<g id="p-1" style="fill:none;stroke-linecap:round;stroke-linejoin:round;">
  <path d="M 24.400 446.100 H 20.500 C 20.400 446.100 20.500 446.200 20.500 446.100 V 442.300 C 20.500 442.200 20.400 442.300 20.500 442.300 H 28.300 C 28.400 442.300 28.300 442.200 28.300 442.300 V 446.100 C 28.300 446.200 28.400 446.100 28.300 446.100 H 24.400 Z" stroke="rgb(0,0,255)" stroke-width="0.20" />
  <path d="M 40.400 446.100 H 36.500 C 36.400 446.100 36.500 446.200 36.500 446.100 V 442.300 C 36.500 442.200 36.400 442.300 36.500 442.300 H 44.300 C 44.400 442.300 44.300 442.200 44.300 442.300 V 446.100 C 44.300 446.200 44.400 446.100 44.300 446.100 H 40.400 Z" stroke="rgb(0,0,255)" stroke-width="0.20" />
  <path d="M 56.400 446.100 H 52.500 C 52.400 446.100 52.500 446.200 52.500 446.100 V 442.300 C 52.500 442.200 52.400 442.300 52.500 442.300 H 60.300 C 60.400 442.300 60.300 442.200 60.300 442.300 V 446.100 C 60.300 446.200 60.400 446.100 60.300 446.100 H 56.400 Z" stroke="rgb(0,0,255)" stroke-width="0.20" />
  <path d="M 72.400 446.100 H 68.500 C 68.400 446.100 68.500 446.200 68.500 446.100 V 442.300 C 68.500 442.200 68.400 442.300 68.500 442.300 H 76.300 C 76.400 442.300 76.300 442.200 76.300 442.300 V 446.100 C 76.300 446.200 76.400 446.100 76.300 446.100 H 72.400 Z" stroke="rgb(0,0,255)" stroke-width="0.20" />
  <path d="M 88.400 446.100 H 84.500 C 84.400 446.100 84.500 446.200 84.500 446.100 V 442.300 C 84.500 442.200 84.400 442.300 84.500 442.300 H 92.300 C 92.400 442.300 92.300 442.200 92.300 442.300 V 446.100 C 92.300 446.200 92.400 446.100 92.300 446.100 H 88.400 Z" stroke="rgb(0,0,255)" stroke-width="0.20" />
  <path d="M 104.400 446.100 H 100.500 C 100.400 446.100 100.500 446.200 100.500 446.100 V 442.300 C 100.500 442.200 100.400 442.300 100.500 442.300 H 108.300 C 108.400 442.300 108.300 442.200 108.300 442.300 V 446.100 C 108.300 446.200 108.400 446.100 108.300 446.100 H 104.400 Z" stroke="rgb(0,0,255)" stroke-width="0.20" />
  <text transform="matrix( 1.000 0.000 0.000 1.000 64.400 396.200 )" style="font-family: sans-serif ; font-weight: normal; font-style: normal; fill: rgb(255,0,0)" font-size="4px" text-anchor="middle" dominant-baseline="hanging">Left Side</text><path d="M 14.400 458.200 H 30.400 C 31.822 458.200 33.219 457.826 34.450 457.115 C 35.681 456.404 36.704 455.381 37.415 454.150 C 38.108 452.949 39.105 451.952 40.306 451.258 C 41.507 450.565 42.870 450.200 44.256 450.200 H 84.544 C 85.930 450.200 87.293 450.565 88.494 451.258 C 89.695 451.952 90.692 452.949 91.385 454.150 C 92.096 455.381 93.119 456.404 94.350 457.115 C 95.581 457.826 96.978 458.200 98.400 458.200 H 114.400 C 114.455 458.200 114.500 458.155 114.500 458.100 V 453.614 C 114.500 453.514 114.400 453.614 114.500 453.614 H 118.400 C 118.455 453.614 118.500 453.569 118.500 453.514 V 445.514 C 118.500 445.459 118.455 445.414 118.400 445.414 H 114.500 C 114.400 445.414 114.500 445.514 114.500 445.414 V 437.614 C 114.500 437.514 114.400 437.614 114.500 437.614 H 118.400 C 118.455 437.614 118.500 437.569 118.500 437.514 V 429.514 C 118.500 429.459 118.455 429.414 118.400 429.414 H 114.500 C 114.400 429.414 114.500 429.514 114.500 429.414 V 424.928 V 422.100 C 114.500 422.073 114.489 422.048 114.471 422.029 L 34.471 342.029 C 34.452 342.011 34.427 342.000 34.400 342.000 H 31.572 H 27.086 C 26.986 342.000 27.086 342.100 27.086 342.000 V 338.100 C 27.086 338.045 27.041 338.000 26.986 338.000 H 18.986 C 18.931 338.000 18.886 338.045 18.886 338.100 V 342.000 C 18.886 342.100 18.986 342.000 18.886 342.000 H 14.400 C 14.345 342.000 14.300 342.045 14.300 342.100 V 438.100 V 444.000 C 14.300 444.100 14.400 444.000 14.300 444.000 H 10.400 C 10.345 444.000 10.300 444.045 10.300 444.100 V 452.100 C 10.300 452.155 10.345 452.200 10.400 452.200 H 14.300 C 14.400 452.200 14.300 452.100 14.300 452.200 V 458.100 C 14.300 458.155 14.345 458.200 14.400 458.200" stroke="rgb(0,0,0)" stroke-width="0.20" />
  <path d="M 103.157 416.372 L 106.622 419.837 C 106.693 419.908 106.693 419.767 106.622 419.837 L 103.793 422.666 C 103.723 422.736 103.864 422.736 103.793 422.666 L 96.864 415.736 C 96.793 415.665 96.793 415.807 96.864 415.736 L 99.692 412.908 C 99.763 412.837 99.621 412.837 99.692 412.908 L 103.157 416.372 Z" stroke="rgb(0,0,255)" stroke-width="0.20" />
  <path d="M 40.128 353.343 L 43.592 356.808 C 43.663 356.879 43.663 356.737 43.592 356.808 L 40.764 359.636 C 40.693 359.707 40.835 359.707 40.764 359.636 L 33.834 352.707 C 33.764 352.636 33.764 352.777 33.834 352.707 L 36.663 349.878 C 36.733 349.807 36.592 349.807 36.663 349.878 L 40.128 353.343 Z" stroke="rgb(0,0,255)" stroke-width="0.20" />
  <path d="M 18.400 366.100 V 364.000 C 18.400 363.900 18.300 364.000 18.400 364.000 H 22.600 C 22.700 364.000 22.600 363.900 22.600 364.000 V 368.200 C 22.600 368.300 22.700 368.200 22.600 368.200 H 18.400 C 18.300 368.200 18.400 368.300 18.400 368.200 V 366.100 Z" stroke="rgb(0,0,255)" stroke-width="0.20" />
</g>
<g id="p-2" style="fill:none;stroke-linecap:round;stroke-linejoin:round;">
  <path d="M 134.600 446.100 H 130.700 C 130.600 446.100 130.700 446.200 130.700 446.100 V 442.300 C 130.700 442.200 130.600 442.300 130.700 442.300 H 138.500 C 138.600 442.300 138.500 442.200 138.500 442.300 V 446.100 C 138.500 446.200 138.600 446.100 138.500 446.100 H 134.600 Z" stroke="rgb(0,0,255)" stroke-width="0.20" />
  <path d="M 150.600 446.100 H 146.700 C 146.600 446.100 146.700 446.200 146.700 446.100 V 442.300 C 146.700 442.200 146.600 442.300 146.700 442.300 H 154.500 C 154.600 442.300 154.500 442.200 154.500 442.300 V 446.100 C 154.500 446.200 154.600 446.100 154.500 446.100 H 150.600 Z" stroke="rgb(0,0,255)" stroke-width="0.20" />
  <path d="M 166.600 446.100 H 162.700 C 162.600 446.100 162.700 446.200 162.700 446.100 V 442.300 C 162.700 442.200 162.600 442.300 162.700 442.300 H 170.500 C 170.600 442.300 170.500 442.200 170.500 442.300 V 446.100 C 170.500 446.200 170.600 446.100 170.500 446.100 H 166.600 Z" stroke="rgb(0,0,255)" stroke-width="0.20" />
  <path d="M 182.600 446.100 H 178.700 C 178.600 446.100 178.700 446.200 178.700 446.100 V 442.300 C 178.700 442.200 178.600 442.300 178.700 442.300 H 186.500 C 186.600 442.300 186.500 442.200 186.500 442.300 V 446.100 C 186.500 446.200 186.600 446.100 186.500 446.100 H 182.600 Z" stroke="rgb(0,0,255)" stroke-width="0.20" />
  <path d="M 198.600 446.100 H 194.700 C 194.600 446.100 194.700 446.200 194.700 446.100 V 442.300 C 194.700 442.200 194.600 442.300 194.700 442.300 H 202.500 C 202.600 442.300 202.500 442.200 202.500 442.300 V 446.100 C 202.500 446.200 202.600 446.100 202.500 446.100 H 198.600 Z" stroke="rgb(0,0,255)" stroke-width="0.20" />
  <path d="M 214.600 446.100 H 210.700 C 210.600 446.100 210.700 446.200 210.700 446.100 V 442.300 C 210.700 442.200 210.600 442.300 210.700 442.300 H 218.500 C 218.600 442.300 218.500 442.200 218.500 442.300 V 446.100 C 218.500 446.200 218.600 446.100 218.500 446.100 H 214.600 Z" stroke="rgb(0,0,255)" stroke-width="0.20" />
  <text transform="matrix( 1.000 0.000 0.000 1.000 174.600 396.200 )" style="font-family: sans-serif ; font-weight: normal; font-style: normal; fill: rgb(255,0,0)" font-size="4px" text-anchor="middle" dominant-baseline="hanging">Right Side</text><path d="M 124.600 458.200 H 140.600 C 142.022 458.200 143.419 457.826 144.650 457.115 C 145.881 456.404 146.904 455.381 147.615 454.150 C 148.308 452.949 149.305 451.952 150.506 451.258 C 151.707 450.565 153.070 450.200 154.456 450.200 H 194.744 C 196.130 450.200 197.493 450.565 198.694 451.258 C 199.895 451.952 200.892 452.949 201.585 454.150 C 202.296 455.381 203.319 456.404 204.550 457.115 C 205.781 457.826 207.178 458.200 208.600 458.200 H 224.600 C 224.655 458.200 224.700 458.155 224.700 458.100 V 453.614 C 224.700 453.514 224.600 453.614 224.700 453.614 H 228.600 C 228.655 453.614 228.700 453.569 228.700 453.514 V 445.514 C 228.700 445.459 228.655 445.414 228.600 445.414 H 224.700 C 224.600 445.414 224.700 445.514 224.700 445.414 V 437.614 C 224.700 437.514 224.600 437.614 224.700 437.614 H 228.600 C 228.655 437.614 228.700 437.569 228.700 437.514 V 429.514 C 228.700 429.459 228.655 429.414 228.600 429.414 H 224.700 C 224.600 429.414 224.700 429.514 224.700 429.414 V 424.928 V 422.100 C 224.700 422.073 224.689 422.048 224.671 422.029 L 144.671 342.029 C 144.652 342.011 144.627 342.000 144.600 342.000 H 141.772 H 137.286 C 137.186 342.000 137.286 342.100 137.286 342.000 V 338.100 C 137.286 338.045 137.241 338.000 137.186 338.000 H 129.186 C 129.131 338.000 129.086 338.045 129.086 338.100 V 342.000 C 129.086 342.100 129.186 342.000 129.086 342.000 H 124.600 C 124.545 342.000 124.500 342.045 124.500 342.100 V 438.100 V 444.000 C 124.500 444.100 124.600 444.000 124.500 444.000 H 120.600 C 120.545 444.000 120.500 444.045 120.500 444.100 V 452.100 C 120.500 452.155 120.545 452.200 120.600 452.200 H 124.500 C 124.600 452.200 124.500 452.100 124.500 452.200 V 458.100 C 124.500 458.155 124.545 458.200 124.600 458.200" stroke="rgb(0,0,0)" stroke-width="0.20" />
  <path d="M 213.357 416.372 L 216.822 419.837 C 216.893 419.908 216.893 419.767 216.822 419.837 L 213.993 422.666 C 213.923 422.736 214.064 422.736 213.993 422.666 L 207.064 415.736 C 206.993 415.665 206.993 415.807 207.064 415.736 L 209.892 412.908 C 209.963 412.837 209.821 412.837 209.892 412.908 L 213.357 416.372 Z" stroke="rgb(0,0,255)" stroke-width="0.20" />
  <path d="M 150.328 353.343 L 153.792 356.808 C 153.863 356.879 153.863 356.737 153.792 356.808 L 150.964 359.636 C 150.893 359.707 151.035 359.707 150.964 359.636 L 144.034 352.707 C 143.964 352.636 143.964 352.777 144.034 352.707 L 146.863 349.878 C 146.933 349.807 146.792 349.807 146.863 349.878 L 150.328 353.343 Z" stroke="rgb(0,0,255)" stroke-width="0.20" />
  <path d="M 128.600 366.100 V 364.000 C 128.600 363.900 128.500 364.000 128.600 364.000 H 132.800 C 132.900 364.000 132.800 363.900 132.800 364.000 V 368.200 C 132.800 368.300 132.900 368.200 132.800 368.200 H 128.600 C 128.500 368.200 128.600 368.300 128.600 368.200 V 366.100 Z" stroke="rgb(0,0,255)" stroke-width="0.20" />
</g>
<g id="p-3" style="fill:none;stroke-linecap:round;stroke-linejoin:round;">
  <text transform="matrix( 1.000 0.000 0.000 1.000 284.800 232.200 )" style="font-family: sans-serif ; font-weight: normal; font-style: normal; fill: rgb(255,0,0)" font-size="4px" text-anchor="middle" dominant-baseline="hanging">Floor</text><path d="M 234.800 454.200 H 240.700 C 240.800 454.200 240.700 454.100 240.700 454.200 V 458.100 C 240.700 458.155 240.745 458.200 240.800 458.200 H 248.800 C 248.855 458.200 248.900 458.155 248.900 458.100 V 454.200 C 248.900 454.100 248.800 454.200 248.900 454.200 H 256.700 C 256.800 454.200 256.700 454.100 256.700 454.200 V 458.100 C 256.700 458.155 256.745 458.200 256.800 458.200 H 264.800 C 264.855 458.200 264.900 458.155 264.900 458.100 V 454.200 C 264.900 454.100 264.800 454.200 264.900 454.200 H 272.700 C 272.800 454.200 272.700 454.100 272.700 454.200 V 458.100 C 272.700 458.155 272.745 458.200 272.800 458.200 H 280.800 C 280.855 458.200 280.900 458.155 280.900 458.100 V 454.200 C 280.900 454.100 280.800 454.200 280.900 454.200 H 288.700 C 288.800 454.200 288.700 454.100 288.700 454.200 V 458.100 C 288.700 458.155 288.745 458.200 288.800 458.200 H 296.800 C 296.855 458.200 296.900 458.155 296.900 458.100 V 454.200 C 296.900 454.100 296.800 454.200 296.900 454.200 H 304.700 C 304.800 454.200 304.700 454.100 304.700 454.200 V 458.100 C 304.700 458.155 304.745 458.200 304.800 458.200 H 312.800 C 312.855 458.200 312.900 458.155 312.900 458.100 V 454.200 C 312.900 454.100 312.800 454.200 312.900 454.200 H 320.700 C 320.800 454.200 320.700 454.100 320.700 454.200 V 458.100 C 320.700 458.155 320.745 458.200 320.800 458.200 H 328.800 C 328.855 458.200 328.900 458.155 328.900 458.100 V 454.200 C 328.900 454.100 328.800 454.200 328.900 454.200 H 334.800 C 334.855 454.200 334.900 454.155 334.900 454.100 V 446.200 C 334.900 446.100 334.800 446.200 334.900 446.200 H 338.800 C 338.855 446.200 338.900 446.155 338.900 446.100 V 438.100 C 338.900 438.045 338.855 438.000 338.800 438.000 H 334.900 C 334.800 438.000 334.900 438.100 334.900 438.000 V 430.200 C 334.900 430.100 334.800 430.200 334.900 430.200 H 338.800 C 338.855 430.200 338.900 430.155 338.900 430.100 V 422.100 C 338.900 422.045 338.855 422.000 338.800 422.000 H 334.900 C 334.800 422.000 334.900 422.100 334.900 422.000 V 414.200 C 334.900 414.100 334.800 414.200 334.900 414.200 H 338.800 C 338.855 414.200 338.900 414.155 338.900 414.100 V 406.100 C 338.900 406.045 338.855 406.000 338.800 406.000 H 334.900 C 334.800 406.000 334.900 406.100 334.900 406.000 V 398.200 C 334.900 398.100 334.800 398.200 334.900 398.200 H 338.800 C 338.855 398.200 338.900 398.155 338.900 398.100 V 390.100 C 338.900 390.045 338.855 390.000 338.800 390.000 H 334.900 C 334.800 390.000 334.900 390.100 334.900 390.000 V 382.200 C 334.900 382.100 334.800 382.200 334.900 382.200 H 338.800 C 338.855 382.200 338.900 382.155 338.900 382.100 V 374.100 C 338.900 374.045 338.855 374.000 338.800 374.000 H 334.900 C 334.800 374.000 334.900 374.100 334.900 374.000 V 366.200 C 334.900 366.100 334.800 366.200 334.900 366.200 H 338.800 C 338.855 366.200 338.900 366.155 338.900 366.100 V 358.100 C 338.900 358.045 338.855 358.000 338.800 358.000 H 334.900 C 334.800 358.000 334.900 358.100 334.900 358.000 V 350.200 C 334.900 350.100 334.800 350.200 334.900 350.200 H 338.800 C 338.855 350.200 338.900 350.155 338.900 350.100 V 342.100 C 338.900 342.045 338.855 342.000 338.800 342.000 H 334.900 C 334.800 342.000 334.900 342.100 334.900 342.000 V 334.200 C 334.900 334.100 334.800 334.200 334.900 334.200 H 338.800 C 338.855 334.200 338.900 334.155 338.900 334.100 V 326.100 C 338.900 326.045 338.855 326.000 338.800 326.000 H 334.900 C 334.800 326.000 334.900 326.100 334.900 326.000 V 318.200 C 334.900 318.100 334.800 318.200 334.900 318.200 H 338.800 C 338.855 318.200 338.900 318.155 338.900 318.100 V 310.100 C 338.900 310.045 338.855 310.000 338.800 310.000 H 334.900 C 334.800 310.000 334.900 310.100 334.900 310.000 V 302.200 C 334.900 302.100 334.800 302.200 334.900 302.200 H 338.800 C 338.855 302.200 338.900 302.155 338.900 302.100 V 294.100 C 338.900 294.045 338.855 294.000 338.800 294.000 H 334.900 C 334.800 294.000 334.900 294.100 334.900 294.000 V 286.200 C 334.900 286.100 334.800 286.200 334.900 286.200 H 338.800 C 338.855 286.200 338.900 286.155 338.900 286.100 V 278.100 C 338.900 278.045 338.855 278.000 338.800 278.000 H 334.900 C 334.800 278.000 334.900 278.100 334.900 278.000 V 270.200 C 334.900 270.100 334.800 270.200 334.900 270.200 H 338.800 C 338.855 270.200 338.900 270.155 338.900 270.100 V 262.100 C 338.900 262.045 338.855 262.000 338.800 262.000 H 334.900 C 334.800 262.000 334.900 262.100 334.900 262.000 V 254.200 C 334.900 254.100 334.800 254.200 334.900 254.200 H 338.800 C 338.855 254.200 338.900 254.155 338.900 254.100 V 246.100 C 338.900 246.045 338.855 246.000 338.800 246.000 H 334.900 C 334.800 246.000 334.900 246.100 334.900 246.000 V 238.200 C 334.900 238.100 334.800 238.200 334.900 238.200 H 338.800 C 338.855 238.200 338.900 238.155 338.900 238.100 V 230.100 C 338.900 230.045 338.855 230.000 338.800 230.000 H 334.900 C 334.800 230.000 334.900 230.100 334.900 230.000 V 222.200 C 334.900 222.100 334.800 222.200 334.900 222.200 H 338.800 C 338.855 222.200 338.900 222.155 338.900 222.100 V 214.100 C 338.900 214.045 338.855 214.000 338.800 214.000 H 334.900 C 334.800 214.000 334.900 214.100 334.900 214.000 V 206.200 C 334.900 206.100 334.800 206.200 334.900 206.200 H 338.800 C 338.855 206.200 338.900 206.155 338.900 206.100 V 198.100 C 338.900 198.045 338.855 198.000 338.800 198.000 H 334.900 C 334.800 198.000 334.900 198.100 334.900 198.000 V 190.200 C 334.900 190.100 334.800 190.200 334.900 190.200 H 338.800 C 338.855 190.200 338.900 190.155 338.900 190.100 V 182.100 C 338.900 182.045 338.855 182.000 338.800 182.000 H 334.900 C 334.800 182.000 334.900 182.100 334.900 182.000 V 174.200 C 334.900 174.100 334.800 174.200 334.900 174.200 H 338.800 C 338.855 174.200 338.900 174.155 338.900 174.100 V 166.100 C 338.900 166.045 338.855 166.000 338.800 166.000 H 334.900 C 334.800 166.000 334.900 166.100 334.900 166.000 V 158.200 C 334.900 158.100 334.800 158.200 334.900 158.200 H 338.800 C 338.855 158.200 338.900 158.155 338.900 158.100 V 150.100 C 338.900 150.045 338.855 150.000 338.800 150.000 H 334.900 C 334.800 150.000 334.900 150.100 334.900 150.000 V 142.200 C 334.900 142.100 334.800 142.200 334.900 142.200 H 338.800 C 338.855 142.200 338.900 142.155 338.900 142.100 V 134.100 C 338.900 134.045 338.855 134.000 338.800 134.000 H 334.900 C 334.800 134.000 334.900 134.100 334.900 134.000 V 126.200 C 334.900 126.100 334.800 126.200 334.900 126.200 H 338.800 C 338.855 126.200 338.900 126.155 338.900 126.100 V 118.100 C 338.900 118.045 338.855 118.000 338.800 118.000 H 334.900 C 334.800 118.000 334.900 118.100 334.900 118.000 V 110.200 C 334.900 110.100 334.800 110.200 334.900 110.200 H 338.800 C 338.855 110.200 338.900 110.155 338.900 110.100 V 102.100 C 338.900 102.045 338.855 102.000 338.800 102.000 H 334.900 C 334.800 102.000 334.900 102.100 334.900 102.000 V 94.200 C 334.900 94.100 334.800 94.200 334.900 94.200 H 338.800 C 338.855 94.200 338.900 94.155 338.900 94.100 V 86.100 C 338.900 86.045 338.855 86.000 338.800 86.000 H 334.900 C 334.800 86.000 334.900 86.100 334.900 86.000 V 78.200 C 334.900 78.100 334.800 78.200 334.900 78.200 H 338.800 C 338.855 78.200 338.900 78.155 338.900 78.100 V 70.100 C 338.900 70.045 338.855 70.000 338.800 70.000 H 334.900 C 334.800 70.000 334.900 70.100 334.900 70.000 V 62.200 C 334.900 62.100 334.800 62.200 334.900 62.200 H 338.800 C 338.855 62.200 338.900 62.155 338.900 62.100 V 54.100 C 338.900 54.045 338.855 54.000 338.800 54.000 H 334.900 C 334.800 54.000 334.900 54.100 334.900 54.000 V 46.200 C 334.900 46.100 334.800 46.200 334.900 46.200 H 338.800 C 338.855 46.200 338.900 46.155 338.900 46.100 V 38.100 C 338.900 38.045 338.855 38.000 338.800 38.000 H 334.900 C 334.800 38.000 334.900 38.100 334.900 38.000 V 30.200 C 334.900 30.100 334.800 30.200 334.900 30.200 H 338.800 C 338.855 30.200 338.900 30.155 338.900 30.100 V 22.100 C 338.900 22.045 338.855 22.000 338.800 22.000 H 334.900 C 334.800 22.000 334.900 22.100 334.900 22.000 V 14.100 C 334.900 14.045 334.855 14.000 334.800 14.000 H 328.900 C 328.800 14.000 328.900 14.100 328.900 14.000 V 10.100 C 328.900 10.045 328.855 10.000 328.800 10.000 H 320.800 C 320.745 10.000 320.700 10.045 320.700 10.100 V 14.000 C 320.700 14.100 320.800 14.000 320.700 14.000 H 312.900 C 312.800 14.000 312.900 14.100 312.900 14.000 V 10.100 C 312.900 10.045 312.855 10.000 312.800 10.000 H 304.800 C 304.745 10.000 304.700 10.045 304.700 10.100 V 14.000 C 304.700 14.100 304.800 14.000 304.700 14.000 H 296.900 C 296.800 14.000 296.900 14.100 296.900 14.000 V 10.100 C 296.900 10.045 296.855 10.000 296.800 10.000 H 288.800 C 288.745 10.000 288.700 10.045 288.700 10.100 V 14.000 C 288.700 14.100 288.800 14.000 288.700 14.000 H 280.900 C 280.800 14.000 280.900 14.100 280.900 14.000 V 10.100 C 280.900 10.045 280.855 10.000 280.800 10.000 H 272.800 C 272.745 10.000 272.700 10.045 272.700 10.100 V 14.000 C 272.700 14.100 272.800 14.000 272.700 14.000 H 264.900 C 264.800 14.000 264.900 14.100 264.900 14.000 V 10.100 C 264.900 10.045 264.855 10.000 264.800 10.000 H 256.800 C 256.745 10.000 256.700 10.045 256.700 10.100 V 14.000 C 256.700 14.100 256.800 14.000 256.700 14.000 H 248.900 C 248.800 14.000 248.900 14.100 248.900 14.000 V 10.100 C 248.900 10.045 248.855 10.000 248.800 10.000 H 240.800 C 240.745 10.000 240.700 10.045 240.700 10.100 V 14.000 C 240.700 14.100 240.800 14.000 240.700 14.000 H 234.800 C 234.745 14.000 234.700 14.045 234.700 14.100 V 22.000 C 234.700 22.100 234.800 22.000 234.700 22.000 H 230.800 C 230.745 22.000 230.700 22.045 230.700 22.100 V 30.100 C 230.700 30.155 230.745 30.200 230.800 30.200 H 234.700 C 234.800 30.200 234.700 30.100 234.700 30.200 V 38.000 C 234.700 38.100 234.800 38.000 234.700 38.000 H 230.800 C 230.745 38.000 230.700 38.045 230.700 38.100 V 46.100 C 230.700 46.155 230.745 46.200 230.800 46.200 H 234.700 C 234.800 46.200 234.700 46.100 234.700 46.200 V 54.000 C 234.700 54.100 234.800 54.000 234.700 54.000 H 230.800 C 230.745 54.000 230.700 54.045 230.700 54.100 V 62.100 C 230.700 62.155 230.745 62.200 230.800 62.200 H 234.700 C 234.800 62.200 234.700 62.100 234.700 62.200 V 70.000 C 234.700 70.100 234.800 70.000 234.700 70.000 H 230.800 C 230.745 70.000 230.700 70.045 230.700 70.100 V 78.100 C 230.700 78.155 230.745 78.200 230.800 78.200 H 234.700 C 234.800 78.200 234.700 78.100 234.700 78.200 V 86.000 C 234.700 86.100 234.800 86.000 234.700 86.000 H 230.800 C 230.745 86.000 230.700 86.045 230.700 86.100 V 94.100 C 230.700 94.155 230.745 94.200 230.800 94.200 H 234.700 C 234.800 94.200 234.700 94.100 234.700 94.200 V 102.000 C 234.700 102.100 234.800 102.000 234.700 102.000 H 230.800 C 230.745 102.000 230.700 102.045 230.700 102.100 V 110.100 C 230.700 110.155 230.745 110.200 230.800 110.200 H 234.700 C 234.800 110.200 234.700 110.100 234.700 110.200 V 118.000 C 234.700 118.100 234.800 118.000 234.700 118.000 H 230.800 C 230.745 118.000 230.700 118.045 230.700 118.100 V 126.100 C 230.700 126.155 230.745 126.200 230.800 126.200 H 234.700 C 234.800 126.200 234.700 126.100 234.700 126.200 V 134.000 C 234.700 134.100 234.800 134.000 234.700 134.000 H 230.800 C 230.745 134.000 230.700 134.045 230.700 134.100 V 142.100 C 230.700 142.155 230.745 142.200 230.800 142.200 H 234.700 C 234.800 142.200 234.700 142.100 234.700 142.200 V 150.000 C 234.700 150.100 234.800 150.000 234.700 150.000 H 230.800 C 230.745 150.000 230.700 150.045 230.700 150.100 V 158.100 C 230.700 158.155 230.745 158.200 230.800 158.200 H 234.700 C 234.800 158.200 234.700 158.100 234.700 158.200 V 166.000 C 234.700 166.100 234.800 166.000 234.700 166.000 H 230.800 C 230.745 166.000 230.700 166.045 230.700 166.100 V 174.100 C 230.700 174.155 230.745 174.200 230.800 174.200 H 234.700 C 234.800 174.200 234.700 174.100 234.700 174.200 V 182.000 C 234.700 182.100 234.800 182.000 234.700 182.000 H 230.800 C 230.745 182.000 230.700 182.045 230.700 182.100 V 190.100 C 230.700 190.155 230.745 190.200 230.800 190.200 H 234.700 C 234.800 190.200 234.700 190.100 234.700 190.200 V 198.000 C 234.700 198.100 234.800 198.000 234.700 198.000 H 230.800 C 230.745 198.000 230.700 198.045 230.700 198.100 V 206.100 C 230.700 206.155 230.745 206.200 230.800 206.200 H 234.700 C 234.800 206.200 234.700 206.100 234.700 206.200 V 214.000 C 234.700 214.100 234.800 214.000 234.700 214.000 H 230.800 C 230.745 214.000 230.700 214.045 230.700 214.100 V 222.100 C 230.700 222.155 230.745 222.200 230.800 222.200 H 234.700 C 234.800 222.200 234.700 222.100 234.700 222.200 V 230.000 C 234.700 230.100 234.800 230.000 234.700 230.000 H 230.800 C 230.745 230.000 230.700 230.045 230.700 230.100 V 238.100 C 230.700 238.155 230.745 238.200 230.800 238.200 H 234.700 C 234.800 238.200 234.700 238.100 234.700 238.200 V 246.000 C 234.700 246.100 234.800 246.000 234.700 246.000 H 230.800 C 230.745 246.000 230.700 246.045 230.700 246.100 V 254.100 C 230.700 254.155 230.745 254.200 230.800 254.200 H 234.700 C 234.800 254.200 234.700 254.100 234.700 254.200 V 262.000 C 234.700 262.100 234.800 262.000 234.700 262.000 H 230.800 C 230.745 262.000 230.700 262.045 230.700 262.100 V 270.100 C 230.700 270.155 230.745 270.200 230.800 270.200 H 234.700 C 234.800 270.200 234.700 270.100 234.700 270.200 V 278.000 C 234.700 278.100 234.800 278.000 234.700 278.000 H 230.800 C 230.745 278.000 230.700 278.045 230.700 278.100 V 286.100 C 230.700 286.155 230.745 286.200 230.800 286.200 H 234.700 C 234.800 286.200 234.700 286.100 234.700 286.200 V 294.000 C 234.700 294.100 234.800 294.000 234.700 294.000 H 230.800 C 230.745 294.000 230.700 294.045 230.700 294.100 V 302.100 C 230.700 302.155 230.745 302.200 230.800 302.200 H 234.700 C 234.800 302.200 234.700 302.100 234.700 302.200 V 310.000 C 234.700 310.100 234.800 310.000 234.700 310.000 H 230.800 C 230.745 310.000 230.700 310.045 230.700 310.100 V 318.100 C 230.700 318.155 230.745 318.200 230.800 318.200 H 234.700 C 234.800 318.200 234.700 318.100 234.700 318.200 V 326.000 C 234.700 326.100 234.800 326.000 234.700 326.000 H 230.800 C 230.745 326.000 230.700 326.045 230.700 326.100 V 334.100 C 230.700 334.155 230.745 334.200 230.800 334.200 H 234.700 C 234.800 334.200 234.700 334.100 234.700 334.200 V 342.000 C 234.700 342.100 234.800 342.000 234.700 342.000 H 230.800 C 230.745 342.000 230.700 342.045 230.700 342.100 V 350.100 C 230.700 350.155 230.745 350.200 230.800 350.200 H 234.700 C 234.800 350.200 234.700 350.100 234.700 350.200 V 358.000 C 234.700 358.100 234.800 358.000 234.700 358.000 H 230.800 C 230.745 358.000 230.700 358.045 230.700 358.100 V 366.100 C 230.700 366.155 230.745 366.200 230.800 366.200 H 234.700 C 234.800 366.200 234.700 366.100 234.700 366.200 V 374.000 C 234.700 374.100 234.800 374.000 234.700 374.000 H 230.800 C 230.745 374.000 230.700 374.045 230.700 374.100 V 382.100 C 230.700 382.155 230.745 382.200 230.800 382.200 H 234.700 C 234.800 382.200 234.700 382.100 234.700 382.200 V 390.000 C 234.700 390.100 234.800 390.000 234.700 390.000 H 230.800 C 230.745 390.000 230.700 390.045 230.700 390.100 V 398.100 C 230.700 398.155 230.745 398.200 230.800 398.200 H 234.700 C 234.800 398.200 234.700 398.100 234.700 398.200 V 406.000 C 234.700 406.100 234.800 406.000 234.700 406.000 H 230.800 C 230.745 406.000 230.700 406.045 230.700 406.100 V 414.100 C 230.700 414.155 230.745 414.200 230.800 414.200 H 234.700 C 234.800 414.200 234.700 414.100 234.700 414.200 V 422.000 C 234.700 422.100 234.800 422.000 234.700 422.000 H 230.800 C 230.745 422.000 230.700 422.045 230.700 422.100 V 430.100 C 230.700 430.155 230.745 430.200 230.800 430.200 H 234.700 C 234.800 430.200 234.700 430.100 234.700 430.200 V 438.000 C 234.700 438.100 234.800 438.000 234.700 438.000 H 230.800 C 230.745 438.000 230.700 438.045 230.700 438.100 V 446.100 C 230.700 446.155 230.745 446.200 230.800 446.200 H 234.700 C 234.800 446.200 234.700 446.100 234.700 446.200 V 454.100 C 234.700 454.155 234.745 454.200 234.800 454.200" stroke="rgb(0,0,0)" stroke-width="0.20" />
</g>
<g id="p-4" style="fill:none;stroke-linecap:round;stroke-linejoin:round;">
  <text transform="matrix( 1.000 0.000 0.000 1.000 357.586 232.200 )" style="font-family: sans-serif ; font-weight: normal; font-style: normal; fill: rgb(255,0,0)" font-size="4px" text-anchor="middle" dominant-baseline="hanging">Front</text><path d="M 341.000 458.200 H 345.586 C 345.641 458.200 345.686 458.155 345.686 458.100 V 454.200 C 345.686 454.100 345.586 454.200 345.686 454.200 H 353.486 C 353.586 454.200 353.486 454.100 353.486 454.200 V 458.100 C 353.486 458.155 353.531 458.200 353.586 458.200 H 361.586 C 361.641 458.200 361.686 458.155 361.686 458.100 V 454.200 C 361.686 454.100 361.586 454.200 361.686 454.200 H 369.486 C 369.586 454.200 369.486 454.100 369.486 454.200 V 458.100 C 369.486 458.155 369.531 458.200 369.586 458.200 H 374.172 C 374.227 458.200 374.272 458.155 374.272 458.100 V 454.100 V 14.100 V 10.100 C 374.272 10.045 374.227 10.000 374.172 10.000 H 369.586 C 369.531 10.000 369.486 10.045 369.486 10.100 V 14.000 C 369.486 14.100 369.586 14.000 369.486 14.000 H 361.686 C 361.586 14.000 361.686 14.100 361.686 14.000 V 10.100 C 361.686 10.045 361.641 10.000 361.586 10.000 H 353.586 C 353.531 10.000 353.486 10.045 353.486 10.100 V 14.000 C 353.486 14.100 353.586 14.000 353.486 14.000 H 345.686 C 345.586 14.000 345.686 14.100 345.686 14.000 V 10.100 C 345.686 10.045 345.641 10.000 345.586 10.000 H 341.000 C 340.945 10.000 340.900 10.045 340.900 10.100 V 14.100 V 30.100 C 340.900 31.522 341.274 32.919 341.985 34.150 C 342.696 35.381 343.719 36.404 344.950 37.115 C 346.151 37.808 347.148 38.805 347.842 40.006 C 348.535 41.207 348.900 42.570 348.900 43.956 V 424.244 C 348.900 425.630 348.535 426.993 347.842 428.194 C 347.148 429.395 346.151 430.392 344.950 431.085 C 343.719 431.796 342.696 432.819 341.985 434.050 C 341.274 435.281 340.900 436.678 340.900 438.100 V 454.100 V 458.100 C 340.900 458.155 340.945 458.200 341.000 458.200" stroke="rgb(0,0,0)" stroke-width="0.20" />
  <path d="M 353.000 26.100 V 22.200 C 353.000 22.100 352.900 22.200 353.000 22.200 H 356.800 C 356.900 22.200 356.800 22.100 356.800 22.200 V 30.000 C 356.800 30.100 356.900 30.000 356.800 30.000 H 353.000 C 352.900 30.000 353.000 30.100 353.000 30.000 V 26.100 Z" stroke="rgb(0,0,255)" stroke-width="0.20" />
  <path d="M 353.000 42.100 V 38.200 C 353.000 38.100 352.900 38.200 353.000 38.200 H 356.800 C 356.900 38.200 356.800 38.100 356.800 38.200 V 46.000 C 356.800 46.100 356.900 46.000 356.800 46.000 H 353.000 C 352.900 46.000 353.000 46.100 353.000 46.000 V 42.100 Z" stroke="rgb(0,0,255)" stroke-width="0.20" />
  <path d="M 353.000 58.100 V 54.200 C 353.000 54.100 352.900 54.200 353.000 54.200 H 356.800 C 356.900 54.200 356.800 54.100 356.800 54.200 V 62.000 C 356.800 62.100 356.900 62.000 356.800 62.000 H 353.000 C 352.900 62.000 353.000 62.100 353.000 62.000 V 58.100 Z" stroke="rgb(0,0,255)" stroke-width="0.20" />
  <path d="M 353.000 74.100 V 70.200 C 353.000 70.100 352.900 70.200 353.000 70.200 H 356.800 C 356.900 70.200 356.800 70.100 356.800 70.200 V 78.000 C 356.800 78.100 356.900 78.000 356.800 78.000 H 353.000 C 352.900 78.000 353.000 78.100 353.000 78.000 V 74.100 Z" stroke="rgb(0,0,255)" stroke-width="0.20" />
  <path d="M 353.000 90.100 V 86.200 C 353.000 86.100 352.900 86.200 353.000 86.200 H 356.800 C 356.900 86.200 356.800 86.100 356.800 86.200 V 94.000 C 356.800 94.100 356.900 94.000 356.800 94.000 H 353.000 C 352.900 94.000 353.000 94.100 353.000 94.000 V 90.100 Z" stroke="rgb(0,0,255)" stroke-width="0.20" />
  <path d="M 353.000 106.100 V 102.200 C 353.000 102.100 352.900 102.200 353.000 102.200 H 356.800 C 356.900 102.200 356.800 102.100 356.800 102.200 V 110.000 C 356.800 110.100 356.900 110.000 356.800 110.000 H 353.000 C 352.900 110.000 353.000 110.100 353.000 110.000 V 106.100 Z" stroke="rgb(0,0,255)" stroke-width="0.20" />
  <path d="M 353.000 122.100 V 118.200 C 353.000 118.100 352.900 118.200 353.000 118.200 H 356.800 C 356.900 118.200 356.800 118.100 356.800 118.200 V 126.000 C 356.800 126.100 356.900 126.000 356.800 126.000 H 353.000 C 352.900 126.000 353.000 126.100 353.000 126.000 V 122.100 Z" stroke="rgb(0,0,255)" stroke-width="0.20" />
  <path d="M 353.000 138.100 V 134.200 C 353.000 134.100 352.900 134.200 353.000 134.200 H 356.800 C 356.900 134.200 356.800 134.100 356.800 134.200 V 142.000 C 356.800 142.100 356.900 142.000 356.800 142.000 H 353.000 C 352.900 142.000 353.000 142.100 353.000 142.000 V 138.100 Z" stroke="rgb(0,0,255)" stroke-width="0.20" />
  <path d="M 353.000 154.100 V 150.200 C 353.000 150.100 352.900 150.200 353.000 150.200 H 356.800 C 356.900 150.200 356.800 150.100 356.800 150.200 V 158.000 C 356.800 158.100 356.900 158.000 356.800 158.000 H 353.000 C 352.900 158.000 353.000 158.100 353.000 158.000 V 154.100 Z" stroke="rgb(0,0,255)" stroke-width="0.20" />
  <path d="M 353.000 170.100 V 166.200 C 353.000 166.100 352.900 166.200 353.000 166.200 H 356.800 C 356.900 166.200 356.800 166.100 356.800 166.200 V 174.000 C 356.800 174.100 356.900 174.000 356.800 174.000 H 353.000 C 352.900 174.000 353.000 174.100 353.000 174.000 V 170.100 Z" stroke="rgb(0,0,255)" stroke-width="0.20" />
  <path d="M 353.000 186.100 V 182.200 C 353.000 182.100 352.900 182.200 353.000 182.200 H 356.800 C 356.900 182.200 356.800 182.100 356.800 182.200 V 190.000 C 356.800 190.100 356.900 190.000 356.800 190.000 H 353.000 C 352.900 190.000 353.000 190.100 353.000 190.000 V 186.100 Z" stroke="rgb(0,0,255)" stroke-width="0.20" />
  <path d="M 353.000 202.100 V 198.200 C 353.000 198.100 352.900 198.200 353.000 198.200 H 356.800 C 356.900 198.200 356.800 198.100 356.800 198.200 V 206.000 C 356.800 206.100 356.900 206.000 356.800 206.000 H 353.000 C 352.900 206.000 353.000 206.100 353.000 206.000 V 202.100 Z" stroke="rgb(0,0,255)" stroke-width="0.20" />
  <path d="M 353.000 218.100 V 214.200 C 353.000 214.100 352.900 214.200 353.000 214.200 H 356.800 C 356.900 214.200 356.800 214.100 356.800 214.200 V 222.000 C 356.800 222.100 356.900 222.000 356.800 222.000 H 353.000 C 352.900 222.000 353.000 222.100 353.000 222.000 V 218.100 Z" stroke="rgb(0,0,255)" stroke-width="0.20" />
  <path d="M 353.000 234.100 V 230.200 C 353.000 230.100 352.900 230.200 353.000 230.200 H 356.800 C 356.900 230.200 356.800 230.100 356.800 230.200 V 238.000 C 356.800 238.100 356.900 238.000 356.800 238.000 H 353.000 C 352.900 238.000 353.000 238.100 353.000 238.000 V 234.100 Z" stroke="rgb(0,0,255)" stroke-width="0.20" />
  <path d="M 353.000 250.100 V 246.200 C 353.000 246.100 352.900 246.200 353.000 246.200 H 356.800 C 356.900 246.200 356.800 246.100 356.800 246.200 V 254.000 C 356.800 254.100 356.900 254.000 356.800 254.000 H 353.000 C 352.900 254.000 353.000 254.100 353.000 254.000 V 250.100 Z" stroke="rgb(0,0,255)" stroke-width="0.20" />
  <path d="M 353.000 266.100 V 262.200 C 353.000 262.100 352.900 262.200 353.000 262.200 H 356.800 C 356.900 262.200 356.800 262.100 356.800 262.200 V 270.000 C 356.800 270.100 356.900 270.000 356.800 270.000 H 353.000 C 352.900 270.000 353.000 270.100 353.000 270.000 V 266.100 Z" stroke="rgb(0,0,255)" stroke-width="0.20" />
  <path d="M 353.000 282.100 V 278.200 C 353.000 278.100 352.900 278.200 353.000 278.200 H 356.800 C 356.900 278.200 356.800 278.100 356.800 278.200 V 286.000 C 356.800 286.100 356.900 286.000 356.800 286.000 H 353.000 C 352.900 286.000 353.000 286.100 353.000 286.000 V 282.100 Z" stroke="rgb(0,0,255)" stroke-width="0.20" />
  <path d="M 353.000 298.100 V 294.200 C 353.000 294.100 352.900 294.200 353.000 294.200 H 356.800 C 356.900 294.200 356.800 294.100 356.800 294.200 V 302.000 C 356.800 302.100 356.900 302.000 356.800 302.000 H 353.000 C 352.900 302.000 353.000 302.100 353.000 302.000 V 298.100 Z" stroke="rgb(0,0,255)" stroke-width="0.20" />
  <path d="M 353.000 314.100 V 310.200 C 353.000 310.100 352.900 310.200 353.000 310.200 H 356.800 C 356.900 310.200 356.800 310.100 356.800 310.200 V 318.000 C 356.800 318.100 356.900 318.000 356.800 318.000 H 353.000 C 352.900 318.000 353.000 318.100 353.000 318.000 V 314.100 Z" stroke="rgb(0,0,255)" stroke-width="0.20" />
  <path d="M 353.000 330.100 V 326.200 C 353.000 326.100 352.900 326.200 353.000 326.200 H 356.800 C 356.900 326.200 356.800 326.100 356.800 326.200 V 334.000 C 356.800 334.100 356.900 334.000 356.800 334.000 H 353.000 C 352.900 334.000 353.000 334.100 353.000 334.000 V 330.100 Z" stroke="rgb(0,0,255)" stroke-width="0.20" />
  <path d="M 353.000 346.100 V 342.200 C 353.000 342.100 352.900 342.200 353.000 342.200 H 356.800 C 356.900 342.200 356.800 342.100 356.800 342.200 V 350.000 C 356.800 350.100 356.900 350.000 356.800 350.000 H 353.000 C 352.900 350.000 353.000 350.100 353.000 350.000 V 346.100 Z" stroke="rgb(0,0,255)" stroke-width="0.20" />
  <path d="M 353.000 362.100 V 358.200 C 353.000 358.100 352.900 358.200 353.000 358.200 H 356.800 C 356.900 358.200 356.800 358.100 356.800 358.200 V 366.000 C 356.800 366.100 356.900 366.000 356.800 366.000 H 353.000 C 352.900 366.000 353.000 366.100 353.000 366.000 V 362.100 Z" stroke="rgb(0,0,255)" stroke-width="0.20" />
  <path d="M 353.000 378.100 V 374.200 C 353.000 374.100 352.900 374.200 353.000 374.200 H 356.800 C 356.900 374.200 356.800 374.100 356.800 374.200 V 382.000 C 356.800 382.100 356.900 382.000 356.800 382.000 H 353.000 C 352.900 382.000 353.000 382.100 353.000 382.000 V 378.100 Z" stroke="rgb(0,0,255)" stroke-width="0.20" />
  <path d="M 353.000 394.100 V 390.200 C 353.000 390.100 352.900 390.200 353.000 390.200 H 356.800 C 356.900 390.200 356.800 390.100 356.800 390.200 V 398.000 C 356.800 398.100 356.900 398.000 356.800 398.000 H 353.000 C 352.900 398.000 353.000 398.100 353.000 398.000 V 394.100 Z" stroke="rgb(0,0,255)" stroke-width="0.20" />
  <path d="M 353.000 410.100 V 406.200 C 353.000 406.100 352.900 406.200 353.000 406.200 H 356.800 C 356.900 406.200 356.800 406.100 356.800 406.200 V 414.000 C 356.800 414.100 356.900 414.000 356.800 414.000 H 353.000 C 352.900 414.000 353.000 414.100 353.000 414.000 V 410.100 Z" stroke="rgb(0,0,255)" stroke-width="0.20" />
  <path d="M 353.000 426.100 V 422.200 C 353.000 422.100 352.900 422.200 353.000 422.200 H 356.800 C 356.900 422.200 356.800 422.100 356.800 422.200 V 430.000 C 356.800 430.100 356.900 430.000 356.800 430.000 H 353.000 C 352.900 430.000 353.000 430.100 353.000 430.000 V 426.100 Z" stroke="rgb(0,0,255)" stroke-width="0.20" />
  <path d="M 353.000 442.100 V 438.200 C 353.000 438.100 352.900 438.200 353.000 438.200 H 356.800 C 356.900 438.200 356.800 438.100 356.800 438.200 V 446.000 C 356.800 446.100 356.900 446.000 356.800 446.000 H 353.000 C 352.900 446.000 353.000 446.100 353.000 446.000 V 442.100 Z" stroke="rgb(0,0,255)" stroke-width="0.20" />
</g>
<g id="p-5" style="fill:none;stroke-linecap:round;stroke-linejoin:round;">
  <text transform="matrix( 1.000 0.000 0.000 1.000 436.940 232.200 )" style="font-family: sans-serif ; font-weight: normal; font-style: normal; fill: rgb(255,0,0)" font-size="4px" text-anchor="middle" dominant-baseline="hanging">Panel</text><path d="M 380.372 458.200 H 493.509 H 497.509 C 497.564 458.200 497.609 458.155 497.609 458.100 V 454.100 V 14.100 V 10.100 C 497.609 10.045 497.564 10.000 497.509 10.000 H 493.509 H 380.372 H 376.372 C 376.316 10.000 376.272 10.045 376.272 10.100 V 14.100 V 454.100 V 458.100 C 376.272 458.155 376.316 458.200 376.372 458.200 H 380.372" stroke="rgb(0,0,0)" stroke-width="0.20" />
</g>
<g id="p-6" style="fill:none;stroke-linecap:round;stroke-linejoin:round;">
  <text transform="matrix( 1.000 0.000 0.000 1.000 510.294 232.200 )" style="font-family: sans-serif ; font-weight: normal; font-style: normal; fill: rgb(255,0,0)" font-size="4px" text-anchor="middle" dominant-baseline="hanging">Top</text><path d="M 499.709 458.200 H 504.294 C 504.350 458.200 504.394 458.155 504.394 458.100 V 454.200 C 504.394 454.100 504.294 454.200 504.394 454.200 H 512.194 C 512.294 454.200 512.194 454.100 512.194 454.200 V 458.100 C 512.194 458.155 512.239 458.200 512.294 458.200 H 516.880 H 520.880 C 520.935 458.200 520.980 458.155 520.980 458.100 V 454.100 V 14.100 V 10.100 C 520.980 10.045 520.935 10.000 520.880 10.000 H 516.880 H 512.294 C 512.239 10.000 512.194 10.045 512.194 10.100 V 14.000 C 512.194 14.100 512.294 14.000 512.194 14.000 H 504.394 C 504.294 14.000 504.394 14.100 504.394 14.000 V 10.100 C 504.394 10.045 504.350 10.000 504.294 10.000 H 499.709 C 499.653 10.000 499.609 10.045 499.609 10.100 V 14.100 V 454.100 V 458.100 C 499.609 458.155 499.653 458.200 499.709 458.200" stroke="rgb(0,0,0)" stroke-width="0.20" />
</g>
<g id="p-7" style="fill:none;stroke-linecap:round;stroke-linejoin:round;">
  <path d="M 547.080 446.100 H 541.180 C 541.080 446.100 541.180 446.200 541.180 446.100 V 442.300 C 541.180 442.200 541.080 442.300 541.180 442.300 H 544.880 C 544.935 442.300 544.980 442.255 544.980 442.200 V 434.200 C 544.980 434.145 544.935 434.100 544.880 434.100 H 541.180 C 541.080 434.100 541.180 434.200 541.180 434.100 V 430.300 C 541.180 430.200 541.080 430.300 541.180 430.300 H 552.980 C 553.080 430.300 552.980 430.200 552.980 430.300 V 434.100 C 552.980 434.200 553.080 434.100 552.980 434.100 H 549.280 C 549.225 434.100 549.180 434.145 549.180 434.200 V 442.200 C 549.180 442.255 549.225 442.300 549.280 442.300 H 552.980 C 553.080 442.300 552.980 442.200 552.980 442.300 V 446.100 C 552.980 446.200 553.080 446.100 552.980 446.100 H 547.080 Z" stroke="rgb(0,0,255)" stroke-width="0.20" />
  <text transform="matrix( 1.000 0.000 0.000 1.000 570.980 232.200 )" style="font-family: sans-serif ; font-weight: normal; font-style: normal; fill: rgb(255,0,0)" font-size="4px" text-anchor="middle" dominant-baseline="hanging">Back Wall</text><path d="M 523.080 458.200 H 618.880 C 618.935 458.200 618.980 458.155 618.980 458.100 V 454.100 V 14.100 V 10.100 C 618.980 10.045 618.935 10.000 618.880 10.000 H 523.080 C 523.025 10.000 522.980 10.045 522.980 10.100 V 14.100 V 454.100 V 458.100 C 522.980 458.155 523.025 458.200 523.080 458.200" stroke="rgb(0,0,0)" stroke-width="0.20" />
  <path d="M 604.980 450.200 H 608.880 C 608.980 450.200 608.880 450.100 608.880 450.200 V 454.000 C 608.880 454.100 608.980 454.000 608.880 454.000 H 601.080 C 600.980 454.000 601.080 454.100 601.080 454.000 V 450.200 C 601.080 450.100 600.980 450.200 601.080 450.200 H 604.980 Z" stroke="rgb(0,0,255)" stroke-width="0.20" />
  <path d="M 588.980 450.200 H 592.880 C 592.980 450.200 592.880 450.100 592.880 450.200 V 454.000 C 592.880 454.100 592.980 454.000 592.880 454.000 H 585.080 C 584.980 454.000 585.080 454.100 585.080 454.000 V 450.200 C 585.080 450.100 584.980 450.200 585.080 450.200 H 588.980 Z" stroke="rgb(0,0,255)" stroke-width="0.20" />
  <path d="M 572.980 450.200 H 576.880 C 576.980 450.200 576.880 450.100 576.880 450.200 V 454.000 C 576.880 454.100 576.980 454.000 576.880 454.000 H 569.080 C 568.980 454.000 569.080 454.100 569.080 454.000 V 450.200 C 569.080 450.100 568.980 450.200 569.080 450.200 H 572.980 Z" stroke="rgb(0,0,255)" stroke-width="0.20" />
  <path d="M 547.680 22.100 H 553.580 C 553.680 22.100 553.580 22.000 553.580 22.100 V 25.900 C 553.580 26.000 553.680 25.900 553.580 25.900 H 549.880 C 549.825 25.900 549.780 25.945 549.780 26.000 V 34.000 C 549.780 34.055 549.825 34.100 549.880 34.100 H 553.580 C 553.680 34.100 553.580 34.000 553.580 34.100 V 37.900 C 553.580 38.000 553.680 37.900 553.580 37.900 H 541.780 C 541.680 37.900 541.780 38.000 541.780 37.900 V 34.100 C 541.780 34.000 541.680 34.100 541.780 34.100 H 545.480 C 545.535 34.100 545.580 34.055 545.580 34.000 V 26.000 C 545.580 25.945 545.535 25.900 545.480 25.900 H 541.780 C 541.680 25.900 541.780 26.000 541.780 25.900 V 22.100 C 541.780 22.000 541.680 22.100 541.780 22.100 H 547.680 Z" stroke="rgb(0,0,255)" stroke-width="0.20" />
  <path d="M 573.180 18.000 H 569.280 C 569.180 18.000 569.280 18.100 569.280 18.000 V 14.200 C 569.280 14.100 569.180 14.200 569.280 14.200 H 577.080 C 577.180 14.200 577.080 14.100 577.080 14.200 V 18.000 C 577.080 18.100 577.180 18.000 577.080 18.000 H 573.180 Z" stroke="rgb(0,0,255)" stroke-width="0.20" />
  <path d="M 589.180 18.000 H 585.280 C 585.180 18.000 585.280 18.100 585.280 18.000 V 14.200 C 585.280 14.100 585.180 14.200 585.280 14.200 H 593.080 C 593.180 14.200 593.080 14.100 593.080 14.200 V 18.000 C 593.080 18.100 593.180 18.000 593.080 18.000 H 589.180 Z" stroke="rgb(0,0,255)" stroke-width="0.20" />
  <path d="M 605.180 18.000 H 601.280 C 601.180 18.000 601.280 18.100 601.280 18.000 V 14.200 C 601.280 14.100 601.180 14.200 601.280 14.200 H 609.080 C 609.180 14.200 609.080 14.100 609.080 14.200 V 18.000 C 609.080 18.100 609.180 18.000 609.080 18.000 H 605.180 Z" stroke="rgb(0,0,255)" stroke-width="0.20" />
</g>
<g id="p-8" style="fill:none;stroke-linecap:round;stroke-linejoin:round;">
  <text transform="matrix( 1.000 0.000 0.000 1.000 627.080 422.300 )" style="font-family: sans-serif ; font-weight: normal; font-style: normal; fill: rgb(255,0,0)" font-size="4px" text-anchor="middle" dominant-baseline="hanging">Guide</text><path d="M 625.080 458.200 H 633.080 C 633.135 458.200 633.180 458.155 633.180 458.100 V 454.100 V 394.300 V 390.300 C 633.180 390.245 633.135 390.200 633.080 390.200 H 625.080 C 625.025 390.200 624.980 390.245 624.980 390.300 V 394.300 V 404.100 C 624.980 404.200 625.080 404.100 624.980 404.100 H 621.080 C 621.025 404.100 620.980 404.145 620.980 404.200 V 412.200 C 620.980 412.255 621.025 412.300 621.080 412.300 H 624.980 C 625.080 412.300 624.980 412.200 624.980 412.300 V 420.100 C 624.980 420.200 625.080 420.100 624.980 420.100 H 621.080 C 621.025 420.100 620.980 420.145 620.980 420.200 V 428.200 C 620.980 428.255 621.025 428.300 621.080 428.300 H 624.980 C 625.080 428.300 624.980 428.200 624.980 428.300 V 436.100 C 624.980 436.200 625.080 436.100 624.980 436.100 H 621.080 C 621.025 436.100 620.980 436.145 620.980 436.200 V 444.200 C 620.980 444.255 621.025 444.300 621.080 444.300 H 624.980 C 625.080 444.300 624.980 444.200 624.980 444.300 V 454.100 V 458.100 C 624.980 458.155 625.025 458.200 625.080 458.200" stroke="rgb(0,0,0)" stroke-width="0.20" />
</g>
<g id="p-9" style="fill:none;stroke-linecap:round;stroke-linejoin:round;">
  <text transform="matrix( 1.000 0.000 0.000 1.000 641.280 422.300 )" style="font-family: sans-serif ; font-weight: normal; font-style: normal; fill: rgb(255,0,0)" font-size="4px" text-anchor="middle" dominant-baseline="hanging">Guide</text><path d="M 639.280 458.200 H 647.280 C 647.335 458.200 647.380 458.155 647.380 458.100 V 454.100 V 394.300 V 390.300 C 647.380 390.245 647.335 390.200 647.280 390.200 H 639.280 C 639.225 390.200 639.180 390.245 639.180 390.300 V 394.300 V 404.100 C 639.180 404.200 639.280 404.100 639.180 404.100 H 635.280 C 635.225 404.100 635.180 404.145 635.180 404.200 V 412.200 C 635.180 412.255 635.225 412.300 635.280 412.300 H 639.180 C 639.280 412.300 639.180 412.200 639.180 412.300 V 420.100 C 639.180 420.200 639.280 420.100 639.180 420.100 H 635.280 C 635.225 420.100 635.180 420.145 635.180 420.200 V 428.200 C 635.180 428.255 635.225 428.300 635.280 428.300 H 639.180 C 639.280 428.300 639.180 428.200 639.180 428.300 V 436.100 C 639.180 436.200 639.280 436.100 639.180 436.100 H 635.280 C 635.225 436.100 635.180 436.145 635.180 436.200 V 444.200 C 635.180 444.255 635.225 444.300 635.280 444.300 H 639.180 C 639.280 444.300 639.180 444.200 639.180 444.300 V 454.100 V 458.100 C 639.180 458.155 639.225 458.200 639.280 458.200" stroke="rgb(0,0,0)" stroke-width="0.20" />
</g>
<g id="p-10" style="fill:none;stroke-linecap:round;stroke-linejoin:round;">
  <text transform="matrix( 1.000 0.000 0.000 1.000 659.480 232.200 )" style="font-family: sans-serif ; font-weight: normal; font-style: normal; fill: rgb(255,0,0)" font-size="4px" text-anchor="middle" dominant-baseline="hanging">Bottom Back</text><path d="M 649.480 458.200 H 655.480 C 655.535 458.200 655.580 458.155 655.580 458.100 V 454.200 C 655.580 454.100 655.480 454.200 655.580 454.200 H 663.380 C 663.480 454.200 663.380 454.100 663.380 454.200 V 458.100 C 663.380 458.155 663.425 458.200 663.480 458.200 H 669.480 C 669.535 458.200 669.580 458.155 669.580 458.100 V 454.100 V 438.100 C 669.580 436.678 669.206 435.281 668.495 434.050 C 667.784 432.819 666.762 431.796 665.530 431.085 C 664.329 430.392 663.332 429.395 662.639 428.194 C 661.945 426.993 661.580 425.630 661.580 424.244 V 43.956 C 661.580 42.570 661.945 41.207 662.639 40.006 C 663.332 38.805 664.329 37.808 665.530 37.115 C 666.762 36.404 667.784 35.381 668.495 34.150 C 669.206 32.919 669.580 31.522 669.580 30.100 V 14.100 V 10.100 C 669.580 10.045 669.535 10.000 669.480 10.000 H 663.480 C 663.425 10.000 663.380 10.045 663.380 10.100 V 14.000 C 663.380 14.100 663.480 14.000 663.380 14.000 H 655.580 C 655.480 14.000 655.580 14.100 655.580 14.000 V 10.100 C 655.580 10.045 655.535 10.000 655.480 10.000 H 649.480 C 649.425 10.000 649.380 10.045 649.380 10.100 V 14.100 V 454.100 V 458.100 C 649.380 458.155 649.425 458.200 649.480 458.200" stroke="rgb(0,0,0)" stroke-width="0.20" />
  <path d="M 657.480 442.100 V 446.000 C 657.480 446.100 657.580 446.000 657.480 446.000 H 653.680 C 653.580 446.000 653.680 446.100 653.680 446.000 V 438.200 C 653.680 438.100 653.580 438.200 653.680 438.200 H 657.480 C 657.580 438.200 657.480 438.100 657.480 438.200 V 442.100 Z" stroke="rgb(0,0,255)" stroke-width="0.20" />
  <path d="M 657.480 426.100 V 430.000 C 657.480 430.100 657.580 430.000 657.480 430.000 H 653.680 C 653.580 430.000 653.680 430.100 653.680 430.000 V 422.200 C 653.680 422.100 653.580 422.200 653.680 422.200 H 657.480 C 657.580 422.200 657.480 422.100 657.480 422.200 V 426.100 Z" stroke="rgb(0,0,255)" stroke-width="0.20" />
  <path d="M 657.480 410.100 V 414.000 C 657.480 414.100 657.580 414.000 657.480 414.000 H 653.680 C 653.580 414.000 653.680 414.100 653.680 414.000 V 406.200 C 653.680 406.100 653.580 406.200 653.680 406.200 H 657.480 C 657.580 406.200 657.480 406.100 657.480 406.200 V 410.100 Z" stroke="rgb(0,0,255)" stroke-width="0.20" />
  <path d="M 657.480 394.100 V 398.000 C 657.480 398.100 657.580 398.000 657.480 398.000 H 653.680 C 653.580 398.000 653.680 398.100 653.680 398.000 V 390.200 C 653.680 390.100 653.580 390.200 653.680 390.200 H 657.480 C 657.580 390.200 657.480 390.100 657.480 390.200 V 394.100 Z" stroke="rgb(0,0,255)" stroke-width="0.20" />
  <path d="M 657.480 378.100 V 382.000 C 657.480 382.100 657.580 382.000 657.480 382.000 H 653.680 C 653.580 382.000 653.680 382.100 653.680 382.000 V 374.200 C 653.680 374.100 653.580 374.200 653.680 374.200 H 657.480 C 657.580 374.200 657.480 374.100 657.480 374.200 V 378.100 Z" stroke="rgb(0,0,255)" stroke-width="0.20" />
  <path d="M 657.480 362.100 V 366.000 C 657.480 366.100 657.580 366.000 657.480 366.000 H 653.680 C 653.580 366.000 653.680 366.100 653.680 366.000 V 358.200 C 653.680 358.100 653.580 358.200 653.680 358.200 H 657.480 C 657.580 358.200 657.480 358.100 657.480 358.200 V 362.100 Z" stroke="rgb(0,0,255)" stroke-width="0.20" />
  <path d="M 657.480 346.100 V 350.000 C 657.480 350.100 657.580 350.000 657.480 350.000 H 653.680 C 653.580 350.000 653.680 350.100 653.680 350.000 V 342.200 C 653.680 342.100 653.580 342.200 653.680 342.200 H 657.480 C 657.580 342.200 657.480 342.100 657.480 342.200 V 346.100 Z" stroke="rgb(0,0,255)" stroke-width="0.20" />
  <path d="M 657.480 330.100 V 334.000 C 657.480 334.100 657.580 334.000 657.480 334.000 H 653.680 C 653.580 334.000 653.680 334.100 653.680 334.000 V 326.200 C 653.680 326.100 653.580 326.200 653.680 326.200 H 657.480 C 657.580 326.200 657.480 326.100 657.480 326.200 V 330.100 Z" stroke="rgb(0,0,255)" stroke-width="0.20" />
  <path d="M 657.480 314.100 V 318.000 C 657.480 318.100 657.580 318.000 657.480 318.000 H 653.680 C 653.580 318.000 653.680 318.100 653.680 318.000 V 310.200 C 653.680 310.100 653.580 310.200 653.680 310.200 H 657.480 C 657.580 310.200 657.480 310.100 657.480 310.200 V 314.100 Z" stroke="rgb(0,0,255)" stroke-width="0.20" />
  <path d="M 657.480 298.100 V 302.000 C 657.480 302.100 657.580 302.000 657.480 302.000 H 653.680 C 653.580 302.000 653.680 302.100 653.680 302.000 V 294.200 C 653.680 294.100 653.580 294.200 653.680 294.200 H 657.480 C 657.580 294.200 657.480 294.100 657.480 294.200 V 298.100 Z" stroke="rgb(0,0,255)" stroke-width="0.20" />
  <path d="M 657.480 282.100 V 286.000 C 657.480 286.100 657.580 286.000 657.480 286.000 H 653.680 C 653.580 286.000 653.680 286.100 653.680 286.000 V 278.200 C 653.680 278.100 653.580 278.200 653.680 278.200 H 657.480 C 657.580 278.200 657.480 278.100 657.480 278.200 V 282.100 Z" stroke="rgb(0,0,255)" stroke-width="0.20" />
  <path d="M 657.480 266.100 V 270.000 C 657.480 270.100 657.580 270.000 657.480 270.000 H 653.680 C 653.580 270.000 653.680 270.100 653.680 270.000 V 262.200 C 653.680 262.100 653.580 262.200 653.680 262.200 H 657.480 C 657.580 262.200 657.480 262.100 657.480 262.200 V 266.100 Z" stroke="rgb(0,0,255)" stroke-width="0.20" />
  <path d="M 657.480 250.100 V 254.000 C 657.480 254.100 657.580 254.000 657.480 254.000 H 653.680 C 653.580 254.000 653.680 254.100 653.680 254.000 V 246.200 C 653.680 246.100 653.580 246.200 653.680 246.200 H 657.480 C 657.580 246.200 657.480 246.100 657.480 246.200 V 250.100 Z" stroke="rgb(0,0,255)" stroke-width="0.20" />
  <path d="M 657.480 234.100 V 238.000 C 657.480 238.100 657.580 238.000 657.480 238.000 H 653.680 C 653.580 238.000 653.680 238.100 653.680 238.000 V 230.200 C 653.680 230.100 653.580 230.200 653.680 230.200 H 657.480 C 657.580 230.200 657.480 230.100 657.480 230.200 V 234.100 Z" stroke="rgb(0,0,255)" stroke-width="0.20" />
  <path d="M 657.480 218.100 V 222.000 C 657.480 222.100 657.580 222.000 657.480 222.000 H 653.680 C 653.580 222.000 653.680 222.100 653.680 222.000 V 214.200 C 653.680 214.100 653.580 214.200 653.680 214.200 H 657.480 C 657.580 214.200 657.480 214.100 657.480 214.200 V 218.100 Z" stroke="rgb(0,0,255)" stroke-width="0.20" />
  <path d="M 657.480 202.100 V 206.000 C 657.480 206.100 657.580 206.000 657.480 206.000 H 653.680 C 653.580 206.000 653.680 206.100 653.680 206.000 V 198.200 C 653.680 198.100 653.580 198.200 653.680 198.200 H 657.480 C 657.580 198.200 657.480 198.100 657.480 198.200 V 202.100 Z" stroke="rgb(0,0,255)" stroke-width="0.20" />
  <path d="M 657.480 186.100 V 190.000 C 657.480 190.100 657.580 190.000 657.480 190.000 H 653.680 C 653.580 190.000 653.680 190.100 653.680 190.000 V 182.200 C 653.680 182.100 653.580 182.200 653.680 182.200 H 657.480 C 657.580 182.200 657.480 182.100 657.480 182.200 V 186.100 Z" stroke="rgb(0,0,255)" stroke-width="0.20" />
  <path d="M 657.480 170.100 V 174.000 C 657.480 174.100 657.580 174.000 657.480 174.000 H 653.680 C 653.580 174.000 653.680 174.100 653.680 174.000 V 166.200 C 653.680 166.100 653.580 166.200 653.680 166.200 H 657.480 C 657.580 166.200 657.480 166.100 657.480 166.200 V 170.100 Z" stroke="rgb(0,0,255)" stroke-width="0.20" />
  <path d="M 657.480 154.100 V 158.000 C 657.480 158.100 657.580 158.000 657.480 158.000 H 653.680 C 653.580 158.000 653.680 158.100 653.680 158.000 V 150.200 C 653.680 150.100 653.580 150.200 653.680 150.200 H 657.480 C 657.580 150.200 657.480 150.100 657.480 150.200 V 154.100 Z" stroke="rgb(0,0,255)" stroke-width="0.20" />
  <path d="M 657.480 138.100 V 142.000 C 657.480 142.100 657.580 142.000 657.480 142.000 H 653.680 C 653.580 142.000 653.680 142.100 653.680 142.000 V 134.200 C 653.680 134.100 653.580 134.200 653.680 134.200 H 657.480 C 657.580 134.200 657.480 134.100 657.480 134.200 V 138.100 Z" stroke="rgb(0,0,255)" stroke-width="0.20" />
  <path d="M 657.480 122.100 V 126.000 C 657.480 126.100 657.580 126.000 657.480 126.000 H 653.680 C 653.580 126.000 653.680 126.100 653.680 126.000 V 118.200 C 653.680 118.100 653.580 118.200 653.680 118.200 H 657.480 C 657.580 118.200 657.480 118.100 657.480 118.200 V 122.100 Z" stroke="rgb(0,0,255)" stroke-width="0.20" />
  <path d="M 657.480 106.100 V 110.000 C 657.480 110.100 657.580 110.000 657.480 110.000 H 653.680 C 653.580 110.000 653.680 110.100 653.680 110.000 V 102.200 C 653.680 102.100 653.580 102.200 653.680 102.200 H 657.480 C 657.580 102.200 657.480 102.100 657.480 102.200 V 106.100 Z" stroke="rgb(0,0,255)" stroke-width="0.20" />
  <path d="M 657.480 90.100 V 94.000 C 657.480 94.100 657.580 94.000 657.480 94.000 H 653.680 C 653.580 94.000 653.680 94.100 653.680 94.000 V 86.200 C 653.680 86.100 653.580 86.200 653.680 86.200 H 657.480 C 657.580 86.200 657.480 86.100 657.480 86.200 V 90.100 Z" stroke="rgb(0,0,255)" stroke-width="0.20" />
  <path d="M 657.480 74.100 V 78.000 C 657.480 78.100 657.580 78.000 657.480 78.000 H 653.680 C 653.580 78.000 653.680 78.100 653.680 78.000 V 70.200 C 653.680 70.100 653.580 70.200 653.680 70.200 H 657.480 C 657.580 70.200 657.480 70.100 657.480 70.200 V 74.100 Z" stroke="rgb(0,0,255)" stroke-width="0.20" />
  <path d="M 657.480 58.100 V 62.000 C 657.480 62.100 657.580 62.000 657.480 62.000 H 653.680 C 653.580 62.000 653.680 62.100 653.680 62.000 V 54.200 C 653.680 54.100 653.580 54.200 653.680 54.200 H 657.480 C 657.580 54.200 657.480 54.100 657.480 54.200 V 58.100 Z" stroke="rgb(0,0,255)" stroke-width="0.20" />
  <path d="M 657.480 42.100 V 46.000 C 657.480 46.100 657.580 46.000 657.480 46.000 H 653.680 C 653.580 46.000 653.680 46.100 653.680 46.000 V 38.200 C 653.680 38.100 653.580 38.200 653.680 38.200 H 657.480 C 657.580 38.200 657.480 38.100 657.480 38.200 V 42.100 Z" stroke="rgb(0,0,255)" stroke-width="0.20" />
  <path d="M 657.480 26.100 V 30.000 C 657.480 30.100 657.580 30.000 657.480 30.000 H 653.680 C 653.580 30.000 653.680 30.100 653.680 30.000 V 22.200 C 653.680 22.100 653.580 22.200 653.680 22.200 H 657.480 C 657.580 22.200 657.480 22.100 657.480 22.200 V 26.100 Z" stroke="rgb(0,0,255)" stroke-width="0.20" />
</g>
<g id="p-11" style="fill:none;stroke-linecap:round;stroke-linejoin:round;">
  <path d="M 683.680 454.200 V 22.400 C 683.680 22.345 683.635 22.300 683.580 22.300 H 679.680 C 679.580 22.300 679.680 22.400 679.680 22.300 V 18.400 C 679.680 18.345 679.635 18.300 679.580 18.300 H 675.580 C 675.525 18.300 675.480 18.345 675.480 18.400 V 22.300 C 675.480 22.400 675.580 22.300 675.480 22.300 H 671.580 C 671.525 22.300 671.480 22.345 671.480 22.400 V 454.200 C 671.480 454.255 671.525 454.300 671.580 454.300 H 675.480 C 675.580 454.300 675.480 454.200 675.480 454.300 V 458.200 C 675.480 458.255 675.525 458.300 675.580 458.300 H 679.580 C 679.635 458.300 679.680 458.255 679.680 458.200 V 454.300 C 679.680 454.200 679.580 454.300 679.680 454.300 H 683.580 C 683.635 454.300 683.680 454.255 683.680 454.200 Z" stroke="rgb(0,0,0)" stroke-width="0.20" />
</g>
<g id="p-12" style="fill:none;stroke-linecap:round;stroke-linejoin:round;">
  <path d="M 697.880 454.200 V 22.400 C 697.880 22.345 697.835 22.300 697.780 22.300 H 693.880 C 693.780 22.300 693.880 22.400 693.880 22.300 V 18.400 C 693.880 18.345 693.835 18.300 693.780 18.300 H 689.780 C 689.725 18.300 689.680 18.345 689.680 18.400 V 22.300 C 689.680 22.400 689.780 22.300 689.680 22.300 H 685.780 C 685.725 22.300 685.680 22.345 685.680 22.400 V 454.200 C 685.680 454.255 685.725 454.300 685.780 454.300 H 689.680 C 689.780 454.300 689.680 454.200 689.680 454.300 V 458.200 C 689.680 458.255 689.725 458.300 689.780 458.300 H 693.780 C 693.835 458.300 693.880 458.255 693.880 458.200 V 454.300 C 693.880 454.200 693.780 454.300 693.880 454.300 H 697.780 C 697.835 454.300 697.880 454.255 697.880 454.200 Z" stroke="rgb(0,0,0)" stroke-width="0.20" />
</g>
<g id="p-13" style="fill:none;stroke-linecap:round;stroke-linejoin:round;">
  <path d="M 744.649 450.200 V 454.200 C 744.649 454.255 744.694 454.300 744.749 454.300 H 752.749 C 752.804 454.300 752.849 454.255 752.849 454.200 V 450.300 C 752.849 450.200 752.749 450.300 752.849 450.300 H 789.217 C 789.317 450.300 789.217 450.200 789.217 450.300 V 456.200 C 789.217 456.569 789.314 456.931 789.499 457.250 C 789.683 457.569 789.948 457.834 790.267 458.019 C 790.587 458.203 790.949 458.300 791.317 458.300 H 795.317 C 795.686 458.300 796.048 458.203 796.367 458.019 C 796.687 457.834 796.952 457.569 797.136 457.250 C 797.320 456.931 797.417 456.569 797.417 456.200 V 452.200 C 797.417 452.145 797.373 452.100 797.317 452.100 H 795.417 C 795.317 452.100 795.417 452.200 795.417 452.100 V 450.200 C 795.417 450.255 795.373 450.300 795.317 450.300 C 795.686 450.300 796.048 450.203 796.367 450.019 C 796.687 449.834 796.952 449.569 797.136 449.250 C 797.320 448.931 797.417 448.569 797.417 448.200 C 797.417 448.145 797.373 448.100 797.317 448.100 H 700.180 C 700.125 448.100 700.080 448.145 700.080 448.200 C 700.080 448.569 700.177 448.931 700.362 449.250 C 700.546 449.569 700.811 449.834 701.130 450.019 C 701.449 450.203 701.812 450.300 702.180 450.300 C 702.125 450.300 702.080 450.255 702.080 450.200 V 452.100 C 702.080 452.200 702.180 452.100 702.080 452.100 H 700.180 C 700.125 452.100 700.080 452.145 700.080 452.200 V 456.200 C 700.080 456.569 700.177 456.931 700.362 457.250 C 700.546 457.569 700.811 457.834 701.130 458.019 C 701.449 458.203 701.812 458.300 702.180 458.300 H 706.180 C 706.549 458.300 706.911 458.203 707.230 458.019 C 707.549 457.834 707.815 457.569 707.999 457.250 C 708.183 456.931 708.280 456.569 708.280 456.200 V 450.300 C 708.280 450.200 708.180 450.300 708.280 450.300 H 744.749" stroke="rgb(0,0,0)" stroke-width="0.20" />
</g>
<g id="p-14" style="fill:none;stroke-linecap:round;stroke-linejoin:round;">
  <path d="M 744.649 438.000 V 442.000 C 744.649 442.055 744.694 442.100 744.749 442.100 H 752.749 C 752.804 442.100 752.849 442.055 752.849 442.000 V 438.100 C 752.849 438.000 752.749 438.100 752.849 438.100 H 789.217 C 789.317 438.100 789.217 438.000 789.217 438.100 V 444.000 C 789.217 444.369 789.314 444.731 789.499 445.050 C 789.683 445.369 789.948 445.634 790.267 445.819 C 790.587 446.003 790.949 446.100 791.317 446.100 H 795.317 C 795.686 446.100 796.048 446.003 796.367 445.819 C 796.687 445.634 796.952 445.369 797.136 445.050 C 797.320 444.731 797.417 444.369 797.417 444.000 V 440.000 C 797.417 439.945 797.373 439.900 797.317 439.900 H 795.417 C 795.317 439.900 795.417 440.000 795.417 439.900 V 438.000 C 795.417 438.055 795.373 438.100 795.317 438.100 C 795.686 438.100 796.048 438.003 796.367 437.819 C 796.687 437.634 796.952 437.369 797.136 437.050 C 797.320 436.731 797.417 436.369 797.417 436.000 C 797.417 435.945 797.373 435.900 797.317 435.900 H 700.180 C 700.125 435.900 700.080 435.945 700.080 436.000 C 700.080 436.369 700.177 436.731 700.362 437.050 C 700.546 437.369 700.811 437.634 701.130 437.819 C 701.449 438.003 701.812 438.100 702.180 438.100 C 702.125 438.100 702.080 438.055 702.080 438.000 V 439.900 C 702.080 440.000 702.180 439.900 702.080 439.900 H 700.180 C 700.125 439.900 700.080 439.945 700.080 440.000 V 444.000 C 700.080 444.369 700.177 444.731 700.362 445.050 C 700.546 445.369 700.811 445.634 701.130 445.819 C 701.449 446.003 701.812 446.100 702.180 446.100 H 706.180 C 706.549 446.100 706.911 446.003 707.230 445.819 C 707.549 445.634 707.815 445.369 707.999 445.050 C 708.183 444.731 708.280 444.369 708.280 444.000 V 438.100 C 708.280 438.000 708.180 438.100 708.280 438.100 H 744.749" stroke="rgb(0,0,0)" stroke-width="0.20" />
</g>
<g id="p-15" style="fill:none;stroke-linecap:round;stroke-linejoin:round;">
  <path d="M 712.080 429.800 H 706.180 C 706.080 429.800 706.180 429.900 706.180 429.800 V 425.800 C 706.180 425.700 706.080 425.800 706.180 425.800 H 717.980 C 718.080 425.800 717.980 425.700 717.980 425.800 V 429.800 C 717.980 429.900 718.080 429.800 717.980 429.800 H 712.080 Z" stroke="rgb(0,0,255)" stroke-width="0.20" />
  <path d="M 801.217 429.800 H 795.317 C 795.217 429.800 795.317 429.900 795.317 429.800 V 425.800 C 795.317 425.700 795.217 425.800 795.317 425.800 H 807.117 C 807.217 425.800 807.117 425.700 807.117 425.800 V 429.800 C 807.117 429.900 807.217 429.800 807.117 429.800 H 801.217 Z" stroke="rgb(0,0,255)" stroke-width="0.20" />
  <path d="M 756.649 429.700 H 752.749 C 752.649 429.700 752.749 429.800 752.749 429.700 V 425.900 C 752.749 425.800 752.649 425.900 752.749 425.900 H 760.549 C 760.649 425.900 760.549 425.800 760.549 425.900 V 429.700 C 760.549 429.800 760.649 429.700 760.549 429.700 H 756.649 Z" stroke="rgb(0,0,255)" stroke-width="0.20" />
  <path d="M 700.080 433.800 H 813.217 C 813.273 433.800 813.317 433.755 813.317 433.700 V 429.700 C 813.317 429.645 813.273 429.600 813.217 429.600 H 809.317 C 809.217 429.600 809.317 429.700 809.317 429.600 V 425.800 C 809.317 425.700 809.217 425.800 809.317 425.800 H 813.217 C 813.273 425.800 813.317 425.755 813.317 425.700 V 421.700 C 813.317 421.645 813.273 421.600 813.217 421.600 H 700.080 C 700.025 421.600 699.980 421.645 699.980 421.700 V 425.700 C 699.980 425.755 700.025 425.800 700.080 425.800 H 703.980 C 704.080 425.800 703.980 425.700 703.980 425.800 V 429.600 C 703.980 429.700 704.080 429.600 703.980 429.600 H 700.080 C 700.025 429.600 699.980 429.645 699.980 429.700 V 433.700 C 699.980 433.755 700.025 433.800 700.080 433.800 Z" stroke="rgb(0,0,0)" stroke-width="0.20" />
</g>
<g id="p-16" style="fill:none;stroke-linecap:round;stroke-linejoin:round;">
  <path d="M 712.080 415.600 H 706.180 C 706.080 415.600 706.180 415.700 706.180 415.600 V 411.600 C 706.180 411.500 706.080 411.600 706.180 411.600 H 717.980 C 718.080 411.600 717.980 411.500 717.980 411.600 V 415.600 C 717.980 415.700 718.080 415.600 717.980 415.600 H 712.080 Z" stroke="rgb(0,0,255)" stroke-width="0.20" />
  <path d="M 801.217 415.600 H 795.317 C 795.217 415.600 795.317 415.700 795.317 415.600 V 411.600 C 795.317 411.500 795.217 411.600 795.317 411.600 H 807.117 C 807.217 411.600 807.117 411.500 807.117 411.600 V 415.600 C 807.117 415.700 807.217 415.600 807.117 415.600 H 801.217 Z" stroke="rgb(0,0,255)" stroke-width="0.20" />
  <path d="M 756.649 415.500 H 752.749 C 752.649 415.500 752.749 415.600 752.749 415.500 V 411.700 C 752.749 411.600 752.649 411.700 752.749 411.700 H 760.549 C 760.649 411.700 760.549 411.600 760.549 411.700 V 415.500 C 760.549 415.600 760.649 415.500 760.549 415.500 H 756.649 Z" stroke="rgb(0,0,255)" stroke-width="0.20" />
  <path d="M 700.080 419.600 H 813.217 C 813.273 419.600 813.317 419.555 813.317 419.500 V 415.500 C 813.317 415.445 813.273 415.400 813.217 415.400 H 809.317 C 809.217 415.400 809.317 415.500 809.317 415.400 V 411.600 C 809.317 411.500 809.217 411.600 809.317 411.600 H 813.217 C 813.273 411.600 813.317 411.555 813.317 411.500 V 407.500 C 813.317 407.445 813.273 407.400 813.217 407.400 H 700.080 C 700.025 407.400 699.980 407.445 699.980 407.500 V 411.500 C 699.980 411.555 700.025 411.600 700.080 411.600 H 703.980 C 704.080 411.600 703.980 411.500 703.980 411.600 V 415.400 C 703.980 415.500 704.080 415.400 703.980 415.400 H 700.080 C 700.025 415.400 699.980 415.445 699.980 415.500 V 419.500 C 699.980 419.555 700.025 419.600 700.080 419.600 Z" stroke="rgb(0,0,0)" stroke-width="0.20" />
</g>
<g id="p-17" style="fill:none;stroke-linecap:round;stroke-linejoin:round;">
  <path d="M 700.080 400.600 H 703.980 C 704.080 400.600 703.980 400.500 703.980 400.600 V 401.300 C 703.980 401.355 704.025 401.400 704.080 401.400 H 711.980 C 712.080 401.400 711.980 401.300 711.980 401.400 V 405.300 C 711.980 405.355 712.025 405.400 712.080 405.400 H 716.080 C 716.135 405.400 716.180 405.355 716.180 405.300 V 401.400 C 716.180 401.300 716.080 401.400 716.180 401.400 H 728.080 C 728.135 401.400 728.180 401.355 728.180 401.300 V 397.400 C 728.180 397.300 728.080 397.400 728.180 397.400 H 732.080 C 732.135 397.400 732.180 397.355 732.180 397.300 V 393.300 C 732.180 393.245 732.135 393.200 732.080 393.200 H 724.080 C 724.025 393.200 723.980 393.245 723.980 393.300 V 395.193 C 723.980 395.300 724.087 395.200 723.980 395.193 L 704.535 393.833 C 704.477 393.829 704.428 393.875 704.428 393.933 V 395.933 C 704.428 395.985 704.469 396.029 704.521 396.033 L 724.073 397.400 C 724.053 397.398 724.033 397.391 724.017 397.377 C 724.001 397.364 723.989 397.347 723.984 397.327 C 723.978 397.307 723.979 397.286 723.986 397.266 C 723.993 397.247 724.006 397.230 724.023 397.218 C 724.039 397.206 724.060 397.200 724.080 397.200 H 704.180 C 704.080 397.200 704.180 397.300 704.180 397.200 V 393.300 C 704.180 393.245 704.135 393.200 704.080 393.200 H 700.080 C 700.025 393.200 699.980 393.245 699.980 393.300 V 400.500 C 699.980 400.555 700.025 400.600 700.080 400.600 Z" stroke="rgb(0,0,0)" stroke-width="0.20" />
</g>
<g id="p-18" style="fill:none;stroke-linecap:round;stroke-linejoin:round;">
  <path d="M 700.080 386.400 H 703.980 C 704.080 386.400 703.980 386.300 703.980 386.400 V 387.100 C 703.980 387.155 704.025 387.200 704.080 387.200 H 711.980 C 712.080 387.200 711.980 387.100 711.980 387.200 V 391.100 C 711.980 391.155 712.025 391.200 712.080 391.200 H 716.080 C 716.135 391.200 716.180 391.155 716.180 391.100 V 387.200 C 716.180 387.100 716.080 387.200 716.180 387.200 H 728.080 C 728.135 387.200 728.180 387.155 728.180 387.100 V 383.200 C 728.180 383.100 728.080 383.200 728.180 383.200 H 732.080 C 732.135 383.200 732.180 383.155 732.180 383.100 V 379.100 C 732.180 379.045 732.135 379.000 732.080 379.000 H 724.080 C 724.025 379.000 723.980 379.045 723.980 379.100 V 380.993 C 723.980 381.100 724.087 381.000 723.980 380.993 L 704.535 379.633 C 704.477 379.629 704.428 379.675 704.428 379.733 V 381.733 C 704.428 381.785 704.469 381.829 704.521 381.833 L 724.073 383.200 C 724.053 383.198 724.033 383.191 724.017 383.177 C 724.001 383.164 723.989 383.147 723.984 383.127 C 723.978 383.107 723.979 383.086 723.986 383.066 C 723.993 383.047 724.006 383.030 724.023 383.018 C 724.039 383.006 724.060 383.000 724.080 383.000 H 704.180 C 704.080 383.000 704.180 383.100 704.180 383.000 V 379.100 C 704.180 379.045 704.135 379.000 704.080 379.000 H 700.080 C 700.025 379.000 699.980 379.045 699.980 379.100 V 386.300 C 699.980 386.355 700.025 386.400 700.080 386.400 Z" stroke="rgb(0,0,0)" stroke-width="0.20" />
</g>
<g id="p-19" style="fill:none;stroke-linecap:round;stroke-linejoin:round;">
  <path d="M 702.080 377.000 H 705.880 C 705.935 377.000 705.980 376.955 705.980 376.900 V 366.800 C 705.980 366.700 705.880 366.800 705.980 366.800 H 710.180 C 710.280 366.800 710.180 366.700 710.180 366.800 V 376.900 C 710.180 376.955 710.225 377.000 710.280 377.000 H 714.080 C 714.135 377.000 714.180 376.955 714.180 376.900 V 373.000 C 714.180 372.900 714.080 373.000 714.180 373.000 H 716.080 C 716.135 373.000 716.180 372.955 716.180 372.900 V 364.900 C 716.180 364.873 716.170 364.848 716.151 364.829 L 712.151 360.829 C 712.132 360.811 712.107 360.800 712.080 360.800 H 704.080 C 704.054 360.800 704.028 360.811 704.010 360.829 L 700.010 364.829 C 699.991 364.848 699.980 364.873 699.980 364.900 V 372.900 C 699.980 372.955 700.025 373.000 700.080 373.000 H 701.980 C 702.080 373.000 701.980 372.900 701.980 373.000 V 376.900 C 701.980 376.955 702.025 377.000 702.080 377.000 Z" stroke="rgb(0,0,0)" stroke-width="0.20" />
</g>
<g id="p-20" style="fill:none;stroke-linecap:round;stroke-linejoin:round;">
  <path d="M 720.280 377.000 H 724.080 C 724.135 377.000 724.180 376.955 724.180 376.900 V 366.800 C 724.180 366.700 724.080 366.800 724.180 366.800 H 728.380 C 728.480 366.800 728.380 366.700 728.380 366.800 V 376.900 C 728.380 376.955 728.425 377.000 728.480 377.000 H 732.280 C 732.335 377.000 732.380 376.955 732.380 376.900 V 373.000 C 732.380 372.900 732.280 373.000 732.380 373.000 H 734.280 C 734.335 373.000 734.380 372.955 734.380 372.900 V 364.900 C 734.380 364.873 734.370 364.848 734.351 364.829 L 730.351 360.829 C 730.332 360.811 730.307 360.800 730.280 360.800 H 722.280 C 722.254 360.800 722.228 360.811 722.210 360.829 L 718.210 364.829 C 718.191 364.848 718.180 364.873 718.180 364.900 V 372.900 C 718.180 372.955 718.225 373.000 718.280 373.000 H 720.180 C 720.280 373.000 720.180 372.900 720.180 373.000 V 376.900 C 720.180 376.955 720.225 377.000 720.280 377.000 Z" stroke="rgb(0,0,0)" stroke-width="0.20" />
</g>
<g id="p-21" style="fill:none;stroke-linecap:round;stroke-linejoin:round;">
  <path d="M 702.080 358.800 H 705.880 C 705.935 358.800 705.980 358.755 705.980 358.700 V 348.600 C 705.980 348.500 705.880 348.600 705.980 348.600 H 710.180 C 710.280 348.600 710.180 348.500 710.180 348.600 V 358.700 C 710.180 358.755 710.225 358.800 710.280 358.800 H 714.080 C 714.135 358.800 714.180 358.755 714.180 358.700 V 354.800 C 714.180 354.700 714.080 354.800 714.180 354.800 H 716.080 C 716.135 354.800 716.180 354.755 716.180 354.700 V 346.700 C 716.180 346.673 716.170 346.648 716.151 346.629 L 712.151 342.629 C 712.132 342.611 712.107 342.600 712.080 342.600 H 704.080 C 704.054 342.600 704.028 342.611 704.010 342.629 L 700.010 346.629 C 699.991 346.648 699.980 346.673 699.980 346.700 V 354.700 C 699.980 354.755 700.025 354.800 700.080 354.800 H 701.980 C 702.080 354.800 701.980 354.700 701.980 354.800 V 358.700 C 701.980 358.755 702.025 358.800 702.080 358.800 Z" stroke="rgb(0,0,0)" stroke-width="0.20" />
</g>
<g id="p-22" style="fill:none;stroke-linecap:round;stroke-linejoin:round;">
  <path d="M 720.280 358.800 H 724.080 C 724.135 358.800 724.180 358.755 724.180 358.700 V 348.600 C 724.180 348.500 724.080 348.600 724.180 348.600 H 728.380 C 728.480 348.600 728.380 348.500 728.380 348.600 V 358.700 C 728.380 358.755 728.425 358.800 728.480 358.800 H 732.280 C 732.335 358.800 732.380 358.755 732.380 358.700 V 354.800 C 732.380 354.700 732.280 354.800 732.380 354.800 H 734.280 C 734.335 354.800 734.380 354.755 734.380 354.700 V 346.700 C 734.380 346.673 734.370 346.648 734.351 346.629 L 730.351 342.629 C 730.332 342.611 730.307 342.600 730.280 342.600 H 722.280 C 722.254 342.600 722.228 342.611 722.210 342.629 L 718.210 346.629 C 718.191 346.648 718.180 346.673 718.180 346.700 V 354.700 C 718.180 354.755 718.225 354.800 718.280 354.800 H 720.180 C 720.280 354.800 720.180 354.700 720.180 354.800 V 358.700 C 720.180 358.755 720.225 358.800 720.280 358.800 Z" stroke="rgb(0,0,0)" stroke-width="0.20" />
</g>
</svg>